ISO-10303-21;
HEADER;
FILE_DESCRIPTION(('FreeCAD Model'),'2;1');
FILE_NAME('Open CASCADE Shape Model','2024-10-31T11:58:10',(''),(''),
  'Open CASCADE STEP processor 7.7','FreeCAD','Unknown');
FILE_SCHEMA(('AUTOMOTIVE_DESIGN { 1 0 10303 214 1 1 1 1 }'));
ENDSEC;
DATA;
#1 = APPLICATION_PROTOCOL_DEFINITION('international standard',
  'automotive_design',2000,#2);
#2 = APPLICATION_CONTEXT(
  'core data for automotive mechanical design processes');
#3 = SHAPE_DEFINITION_REPRESENTATION(#4,#10);
#4 = PRODUCT_DEFINITION_SHAPE('','',#5);
#5 = PRODUCT_DEFINITION('design','',#6,#9);
#6 = PRODUCT_DEFINITION_FORMATION('','',#7);
#7 = PRODUCT('Corps','Corps','',(#8));
#8 = PRODUCT_CONTEXT('',#2,'mechanical');
#9 = PRODUCT_DEFINITION_CONTEXT('part definition',#2,'design');
#10 = ADVANCED_BREP_SHAPE_REPRESENTATION('',(#11,#15),#469);
#11 = AXIS2_PLACEMENT_3D('',#12,#13,#14);
#12 = CARTESIAN_POINT('',(0.,0.,0.));
#13 = DIRECTION('',(0.,0.,1.));
#14 = DIRECTION('',(1.,0.,-0.));
#15 = MANIFOLD_SOLID_BREP('',#16);
#16 = CLOSED_SHELL('',(#17,#57,#124,#149,#174,#207,#231,#255,#280,#305,
    #322,#339,#356,#387,#405,#423,#440,#457));
#17 = ADVANCED_FACE('',(#18),#52,.F.);
#18 = FACE_BOUND('',#19,.F.);
#19 = EDGE_LOOP('',(#20,#30,#38,#46));
#20 = ORIENTED_EDGE('',*,*,#21,.F.);
#21 = EDGE_CURVE('',#22,#24,#26,.T.);
#22 = VERTEX_POINT('',#23);
#23 = CARTESIAN_POINT('',(0.3,-5.551115123126E-17,0.));
#24 = VERTEX_POINT('',#25);
#25 = CARTESIAN_POINT('',(1.7,-5.551115123126E-17,0.));
#26 = LINE('',#27,#28);
#27 = CARTESIAN_POINT('',(0.,0.,0.));
#28 = VECTOR('',#29,1.);
#29 = DIRECTION('',(1.,0.,0.));
#30 = ORIENTED_EDGE('',*,*,#31,.T.);
#31 = EDGE_CURVE('',#22,#32,#34,.T.);
#32 = VERTEX_POINT('',#33);
#33 = CARTESIAN_POINT('',(0.3,-5.551115123126E-17,1.7));
#34 = LINE('',#35,#36);
#35 = CARTESIAN_POINT('',(0.3,-5.551115123126E-17,0.));
#36 = VECTOR('',#37,1.);
#37 = DIRECTION('',(0.,0.,1.));
#38 = ORIENTED_EDGE('',*,*,#39,.T.);
#39 = EDGE_CURVE('',#32,#40,#42,.T.);
#40 = VERTEX_POINT('',#41);
#41 = CARTESIAN_POINT('',(1.7,-5.551115123126E-17,1.7));
#42 = LINE('',#43,#44);
#43 = CARTESIAN_POINT('',(0.,-5.551115123126E-17,1.7));
#44 = VECTOR('',#45,1.);
#45 = DIRECTION('',(1.,0.,0.));
#46 = ORIENTED_EDGE('',*,*,#47,.F.);
#47 = EDGE_CURVE('',#24,#40,#48,.T.);
#48 = LINE('',#49,#50);
#49 = CARTESIAN_POINT('',(1.7,-5.551115123126E-17,0.));
#50 = VECTOR('',#51,1.);
#51 = DIRECTION('',(0.,0.,1.));
#52 = PLANE('',#53);
#53 = AXIS2_PLACEMENT_3D('',#54,#55,#56);
#54 = CARTESIAN_POINT('',(0.,0.,0.));
#55 = DIRECTION('',(0.,1.,0.));
#56 = DIRECTION('',(1.,0.,0.));
#57 = ADVANCED_FACE('',(#58),#119,.F.);
#58 = FACE_BOUND('',#59,.F.);
#59 = EDGE_LOOP('',(#60,#61,#70,#78,#87,#95,#104,#112));
#60 = ORIENTED_EDGE('',*,*,#21,.T.);
#61 = ORIENTED_EDGE('',*,*,#62,.T.);
#62 = EDGE_CURVE('',#24,#63,#65,.T.);
#63 = VERTEX_POINT('',#64);
#64 = CARTESIAN_POINT('',(2.,0.3,0.));
#65 = CIRCLE('',#66,0.3);
#66 = AXIS2_PLACEMENT_3D('',#67,#68,#69);
#67 = CARTESIAN_POINT('',(1.7,0.3,0.));
#68 = DIRECTION('',(-0.,0.,1.));
#69 = DIRECTION('',(0.,-1.,0.));
#70 = ORIENTED_EDGE('',*,*,#71,.T.);
#71 = EDGE_CURVE('',#63,#72,#74,.T.);
#72 = VERTEX_POINT('',#73);
#73 = CARTESIAN_POINT('',(2.,9.7,0.));
#74 = LINE('',#75,#76);
#75 = CARTESIAN_POINT('',(2.,0.,0.));
#76 = VECTOR('',#77,1.);
#77 = DIRECTION('',(0.,1.,0.));
#78 = ORIENTED_EDGE('',*,*,#79,.T.);
#79 = EDGE_CURVE('',#72,#80,#82,.T.);
#80 = VERTEX_POINT('',#81);
#81 = CARTESIAN_POINT('',(1.7,10.,0.));
#82 = CIRCLE('',#83,0.3);
#83 = AXIS2_PLACEMENT_3D('',#84,#85,#86);
#84 = CARTESIAN_POINT('',(1.7,9.7,0.));
#85 = DIRECTION('',(-0.,0.,1.));
#86 = DIRECTION('',(0.,-1.,0.));
#87 = ORIENTED_EDGE('',*,*,#88,.T.);
#88 = EDGE_CURVE('',#80,#89,#91,.T.);
#89 = VERTEX_POINT('',#90);
#90 = CARTESIAN_POINT('',(0.3,10.,0.));
#91 = LINE('',#92,#93);
#92 = CARTESIAN_POINT('',(2.,10.,0.));
#93 = VECTOR('',#94,1.);
#94 = DIRECTION('',(-1.,0.,0.));
#95 = ORIENTED_EDGE('',*,*,#96,.T.);
#96 = EDGE_CURVE('',#89,#97,#99,.T.);
#97 = VERTEX_POINT('',#98);
#98 = CARTESIAN_POINT('',(-5.551115123126E-17,9.7,0.));
#99 = CIRCLE('',#100,0.3);
#100 = AXIS2_PLACEMENT_3D('',#101,#102,#103);
#101 = CARTESIAN_POINT('',(0.3,9.7,0.));
#102 = DIRECTION('',(-0.,0.,1.));
#103 = DIRECTION('',(0.,-1.,0.));
#104 = ORIENTED_EDGE('',*,*,#105,.T.);
#105 = EDGE_CURVE('',#97,#106,#108,.T.);
#106 = VERTEX_POINT('',#107);
#107 = CARTESIAN_POINT('',(-5.551115123126E-17,0.3,0.));
#108 = LINE('',#109,#110);
#109 = CARTESIAN_POINT('',(0.,10.,0.));
#110 = VECTOR('',#111,1.);
#111 = DIRECTION('',(0.,-1.,0.));
#112 = ORIENTED_EDGE('',*,*,#113,.F.);
#113 = EDGE_CURVE('',#22,#106,#114,.T.);
#114 = CIRCLE('',#115,0.3);
#115 = AXIS2_PLACEMENT_3D('',#116,#117,#118);
#116 = CARTESIAN_POINT('',(0.3,0.3,0.));
#117 = DIRECTION('',(-0.,-0.,-1.));
#118 = DIRECTION('',(0.,-1.,0.));
#119 = PLANE('',#120);
#120 = AXIS2_PLACEMENT_3D('',#121,#122,#123);
#121 = CARTESIAN_POINT('',(1.,5.,0.));
#122 = DIRECTION('',(0.,0.,1.));
#123 = DIRECTION('',(1.,0.,0.));
#124 = ADVANCED_FACE('',(#125),#144,.T.);
#125 = FACE_BOUND('',#126,.F.);
#126 = EDGE_LOOP('',(#127,#128,#136,#143));
#127 = ORIENTED_EDGE('',*,*,#113,.T.);
#128 = ORIENTED_EDGE('',*,*,#129,.T.);
#129 = EDGE_CURVE('',#106,#130,#132,.T.);
#130 = VERTEX_POINT('',#131);
#131 = CARTESIAN_POINT('',(0.,0.3,1.7));
#132 = LINE('',#133,#134);
#133 = CARTESIAN_POINT('',(-5.551115123126E-17,0.3,0.));
#134 = VECTOR('',#135,1.);
#135 = DIRECTION('',(0.,0.,1.));
#136 = ORIENTED_EDGE('',*,*,#137,.T.);
#137 = EDGE_CURVE('',#130,#32,#138,.T.);
#138 = CIRCLE('',#139,0.3);
#139 = AXIS2_PLACEMENT_3D('',#140,#141,#142);
#140 = CARTESIAN_POINT('',(0.3,0.3,1.7));
#141 = DIRECTION('',(-0.,0.,1.));
#142 = DIRECTION('',(0.,-1.,0.));
#143 = ORIENTED_EDGE('',*,*,#31,.F.);
#144 = CYLINDRICAL_SURFACE('',#145,0.3);
#145 = AXIS2_PLACEMENT_3D('',#146,#147,#148);
#146 = CARTESIAN_POINT('',(0.3,0.3,0.));
#147 = DIRECTION('',(0.,0.,1.));
#148 = DIRECTION('',(0.,-1.,0.));
#149 = ADVANCED_FACE('',(#150),#169,.T.);
#150 = FACE_BOUND('',#151,.T.);
#151 = EDGE_LOOP('',(#152,#153,#161,#168));
#152 = ORIENTED_EDGE('',*,*,#62,.T.);
#153 = ORIENTED_EDGE('',*,*,#154,.T.);
#154 = EDGE_CURVE('',#63,#155,#157,.T.);
#155 = VERTEX_POINT('',#156);
#156 = CARTESIAN_POINT('',(2.,0.3,1.7));
#157 = LINE('',#158,#159);
#158 = CARTESIAN_POINT('',(2.,0.3,0.));
#159 = VECTOR('',#160,1.);
#160 = DIRECTION('',(0.,0.,1.));
#161 = ORIENTED_EDGE('',*,*,#162,.T.);
#162 = EDGE_CURVE('',#155,#40,#163,.T.);
#163 = CIRCLE('',#164,0.3);
#164 = AXIS2_PLACEMENT_3D('',#165,#166,#167);
#165 = CARTESIAN_POINT('',(1.7,0.3,1.7));
#166 = DIRECTION('',(0.,0.,-1.));
#167 = DIRECTION('',(1.,3.700743415417E-16,0.));
#168 = ORIENTED_EDGE('',*,*,#47,.F.);
#169 = CYLINDRICAL_SURFACE('',#170,0.3);
#170 = AXIS2_PLACEMENT_3D('',#171,#172,#173);
#171 = CARTESIAN_POINT('',(1.7,0.3,0.));
#172 = DIRECTION('',(0.,0.,1.));
#173 = DIRECTION('',(0.,-1.,0.));
#174 = ADVANCED_FACE('',(#175),#202,.T.);
#175 = FACE_BOUND('',#176,.F.);
#176 = EDGE_LOOP('',(#177,#178,#187,#195));
#177 = ORIENTED_EDGE('',*,*,#39,.F.);
#178 = ORIENTED_EDGE('',*,*,#179,.T.);
#179 = EDGE_CURVE('',#32,#180,#182,.T.);
#180 = VERTEX_POINT('',#181);
#181 = CARTESIAN_POINT('',(0.3,0.3,2.));
#182 = CIRCLE('',#183,0.3);
#183 = AXIS2_PLACEMENT_3D('',#184,#185,#186);
#184 = CARTESIAN_POINT('',(0.3,0.3,1.7));
#185 = DIRECTION('',(-1.,0.,0.));
#186 = DIRECTION('',(0.,-1.,0.));
#187 = ORIENTED_EDGE('',*,*,#188,.T.);
#188 = EDGE_CURVE('',#180,#189,#191,.T.);
#189 = VERTEX_POINT('',#190);
#190 = CARTESIAN_POINT('',(1.7,0.3,2.));
#191 = LINE('',#192,#193);
#192 = CARTESIAN_POINT('',(0.,0.3,2.));
#193 = VECTOR('',#194,1.);
#194 = DIRECTION('',(1.,0.,0.));
#195 = ORIENTED_EDGE('',*,*,#196,.T.);
#196 = EDGE_CURVE('',#189,#40,#197,.T.);
#197 = CIRCLE('',#198,0.3);
#198 = AXIS2_PLACEMENT_3D('',#199,#200,#201);
#199 = CARTESIAN_POINT('',(1.7,0.3,1.7));
#200 = DIRECTION('',(1.,6.533512864241E-16,0.));
#201 = DIRECTION('',(6.533512864241E-16,-1.,0.));
#202 = CYLINDRICAL_SURFACE('',#203,0.3);
#203 = AXIS2_PLACEMENT_3D('',#204,#205,#206);
#204 = CARTESIAN_POINT('',(0.,0.3,1.7));
#205 = DIRECTION('',(1.,0.,0.));
#206 = DIRECTION('',(0.,-1.,0.));
#207 = ADVANCED_FACE('',(#208),#226,.F.);
#208 = FACE_BOUND('',#209,.F.);
#209 = EDGE_LOOP('',(#210,#211,#219,#225));
#210 = ORIENTED_EDGE('',*,*,#105,.F.);
#211 = ORIENTED_EDGE('',*,*,#212,.T.);
#212 = EDGE_CURVE('',#97,#213,#215,.T.);
#213 = VERTEX_POINT('',#214);
#214 = CARTESIAN_POINT('',(-5.551115123126E-17,9.7,1.7));
#215 = LINE('',#216,#217);
#216 = CARTESIAN_POINT('',(-5.551115123126E-17,9.7,0.));
#217 = VECTOR('',#218,1.);
#218 = DIRECTION('',(0.,0.,1.));
#219 = ORIENTED_EDGE('',*,*,#220,.T.);
#220 = EDGE_CURVE('',#213,#130,#221,.T.);
#221 = LINE('',#222,#223);
#222 = CARTESIAN_POINT('',(-5.551115123126E-17,10.,1.7));
#223 = VECTOR('',#224,1.);
#224 = DIRECTION('',(0.,-1.,0.));
#225 = ORIENTED_EDGE('',*,*,#129,.F.);
#226 = PLANE('',#227);
#227 = AXIS2_PLACEMENT_3D('',#228,#229,#230);
#228 = CARTESIAN_POINT('',(0.,10.,0.));
#229 = DIRECTION('',(1.,0.,0.));
#230 = DIRECTION('',(0.,-1.,0.));
#231 = ADVANCED_FACE('',(#232),#250,.F.);
#232 = FACE_BOUND('',#233,.F.);
#233 = EDGE_LOOP('',(#234,#235,#236,#244));
#234 = ORIENTED_EDGE('',*,*,#71,.F.);
#235 = ORIENTED_EDGE('',*,*,#154,.T.);
#236 = ORIENTED_EDGE('',*,*,#237,.T.);
#237 = EDGE_CURVE('',#155,#238,#240,.T.);
#238 = VERTEX_POINT('',#239);
#239 = CARTESIAN_POINT('',(2.,9.7,1.7));
#240 = LINE('',#241,#242);
#241 = CARTESIAN_POINT('',(2.,0.,1.7));
#242 = VECTOR('',#243,1.);
#243 = DIRECTION('',(0.,1.,0.));
#244 = ORIENTED_EDGE('',*,*,#245,.F.);
#245 = EDGE_CURVE('',#72,#238,#246,.T.);
#246 = LINE('',#247,#248);
#247 = CARTESIAN_POINT('',(2.,9.7,0.));
#248 = VECTOR('',#249,1.);
#249 = DIRECTION('',(0.,0.,1.));
#250 = PLANE('',#251);
#251 = AXIS2_PLACEMENT_3D('',#252,#253,#254);
#252 = CARTESIAN_POINT('',(2.,0.,0.));
#253 = DIRECTION('',(-1.,0.,0.));
#254 = DIRECTION('',(0.,1.,0.));
#255 = ADVANCED_FACE('',(#256),#275,.T.);
#256 = FACE_BOUND('',#257,.T.);
#257 = EDGE_LOOP('',(#258,#259,#260,#269));
#258 = ORIENTED_EDGE('',*,*,#96,.T.);
#259 = ORIENTED_EDGE('',*,*,#212,.T.);
#260 = ORIENTED_EDGE('',*,*,#261,.F.);
#261 = EDGE_CURVE('',#262,#213,#264,.T.);
#262 = VERTEX_POINT('',#263);
#263 = CARTESIAN_POINT('',(0.3,10.,1.7));
#264 = CIRCLE('',#265,0.3);
#265 = AXIS2_PLACEMENT_3D('',#266,#267,#268);
#266 = CARTESIAN_POINT('',(0.3,9.7,1.7));
#267 = DIRECTION('',(6.533512864241E-16,0.,1.));
#268 = DIRECTION('',(-1.,0.,6.533512864241E-16));
#269 = ORIENTED_EDGE('',*,*,#270,.F.);
#270 = EDGE_CURVE('',#89,#262,#271,.T.);
#271 = LINE('',#272,#273);
#272 = CARTESIAN_POINT('',(0.3,10.,0.));
#273 = VECTOR('',#274,1.);
#274 = DIRECTION('',(0.,0.,1.));
#275 = CYLINDRICAL_SURFACE('',#276,0.3);
#276 = AXIS2_PLACEMENT_3D('',#277,#278,#279);
#277 = CARTESIAN_POINT('',(0.3,9.7,0.));
#278 = DIRECTION('',(0.,0.,1.));
#279 = DIRECTION('',(0.,1.,0.));
#280 = ADVANCED_FACE('',(#281),#300,.T.);
#281 = FACE_BOUND('',#282,.T.);
#282 = EDGE_LOOP('',(#283,#284,#292,#299));
#283 = ORIENTED_EDGE('',*,*,#79,.T.);
#284 = ORIENTED_EDGE('',*,*,#285,.T.);
#285 = EDGE_CURVE('',#80,#286,#288,.T.);
#286 = VERTEX_POINT('',#287);
#287 = CARTESIAN_POINT('',(1.7,10.,1.7));
#288 = LINE('',#289,#290);
#289 = CARTESIAN_POINT('',(1.7,10.,0.));
#290 = VECTOR('',#291,1.);
#291 = DIRECTION('',(0.,0.,1.));
#292 = ORIENTED_EDGE('',*,*,#293,.T.);
#293 = EDGE_CURVE('',#286,#238,#294,.T.);
#294 = CIRCLE('',#295,0.3);
#295 = AXIS2_PLACEMENT_3D('',#296,#297,#298);
#296 = CARTESIAN_POINT('',(1.7,9.7,1.7));
#297 = DIRECTION('',(0.,0.,-1.));
#298 = DIRECTION('',(1.,0.,0.));
#299 = ORIENTED_EDGE('',*,*,#245,.F.);
#300 = CYLINDRICAL_SURFACE('',#301,0.3);
#301 = AXIS2_PLACEMENT_3D('',#302,#303,#304);
#302 = CARTESIAN_POINT('',(1.7,9.7,0.));
#303 = DIRECTION('',(0.,0.,1.));
#304 = DIRECTION('',(1.,0.,0.));
#305 = ADVANCED_FACE('',(#306),#317,.F.);
#306 = FACE_BOUND('',#307,.F.);
#307 = EDGE_LOOP('',(#308,#309,#310,#316));
#308 = ORIENTED_EDGE('',*,*,#88,.F.);
#309 = ORIENTED_EDGE('',*,*,#285,.T.);
#310 = ORIENTED_EDGE('',*,*,#311,.T.);
#311 = EDGE_CURVE('',#286,#262,#312,.T.);
#312 = LINE('',#313,#314);
#313 = CARTESIAN_POINT('',(2.,10.,1.7));
#314 = VECTOR('',#315,1.);
#315 = DIRECTION('',(-1.,0.,0.));
#316 = ORIENTED_EDGE('',*,*,#270,.F.);
#317 = PLANE('',#318);
#318 = AXIS2_PLACEMENT_3D('',#319,#320,#321);
#319 = CARTESIAN_POINT('',(2.,10.,0.));
#320 = DIRECTION('',(0.,-1.,0.));
#321 = DIRECTION('',(-1.,0.,0.));
#322 = ADVANCED_FACE('',(#323),#334,.T.);
#323 = FACE_BOUND('',#324,.F.);
#324 = EDGE_LOOP('',(#325,#326,#333));
#325 = ORIENTED_EDGE('',*,*,#137,.F.);
#326 = ORIENTED_EDGE('',*,*,#327,.T.);
#327 = EDGE_CURVE('',#130,#180,#328,.T.);
#328 = CIRCLE('',#329,0.3);
#329 = AXIS2_PLACEMENT_3D('',#330,#331,#332);
#330 = CARTESIAN_POINT('',(0.3,0.3,1.7));
#331 = DIRECTION('',(-0.,1.,6.123233995737E-17));
#332 = DIRECTION('',(0.,-6.123233995737E-17,1.));
#333 = ORIENTED_EDGE('',*,*,#179,.F.);
#334 = SPHERICAL_SURFACE('',#335,0.3);
#335 = AXIS2_PLACEMENT_3D('',#336,#337,#338);
#336 = CARTESIAN_POINT('',(0.3,0.3,1.7));
#337 = DIRECTION('',(1.,0.,0.));
#338 = DIRECTION('',(0.,-1.,0.));
#339 = ADVANCED_FACE('',(#340),#351,.T.);
#340 = FACE_BOUND('',#341,.T.);
#341 = EDGE_LOOP('',(#342,#349,#350));
#342 = ORIENTED_EDGE('',*,*,#343,.F.);
#343 = EDGE_CURVE('',#189,#155,#344,.T.);
#344 = CIRCLE('',#345,0.3);
#345 = AXIS2_PLACEMENT_3D('',#346,#347,#348);
#346 = CARTESIAN_POINT('',(1.7,0.3,1.7));
#347 = DIRECTION('',(-3.700743415417E-16,1.,0.));
#348 = DIRECTION('',(1.,3.700743415417E-16,0.));
#349 = ORIENTED_EDGE('',*,*,#196,.T.);
#350 = ORIENTED_EDGE('',*,*,#162,.F.);
#351 = SPHERICAL_SURFACE('',#352,0.3);
#352 = AXIS2_PLACEMENT_3D('',#353,#354,#355);
#353 = CARTESIAN_POINT('',(1.7,0.3,1.7));
#354 = DIRECTION('',(-0.,-0.,-1.));
#355 = DIRECTION('',(1.,3.700743415417E-16,0.));
#356 = ADVANCED_FACE('',(#357),#382,.T.);
#357 = FACE_BOUND('',#358,.T.);
#358 = EDGE_LOOP('',(#359,#367,#375,#381));
#359 = ORIENTED_EDGE('',*,*,#360,.T.);
#360 = EDGE_CURVE('',#189,#361,#363,.T.);
#361 = VERTEX_POINT('',#362);
#362 = CARTESIAN_POINT('',(1.7,9.7,2.));
#363 = LINE('',#364,#365);
#364 = CARTESIAN_POINT('',(1.7,0.,2.));
#365 = VECTOR('',#366,1.);
#366 = DIRECTION('',(0.,1.,0.));
#367 = ORIENTED_EDGE('',*,*,#368,.T.);
#368 = EDGE_CURVE('',#361,#369,#371,.T.);
#369 = VERTEX_POINT('',#370);
#370 = CARTESIAN_POINT('',(0.3,9.7,2.));
#371 = LINE('',#372,#373);
#372 = CARTESIAN_POINT('',(2.,9.7,2.));
#373 = VECTOR('',#374,1.);
#374 = DIRECTION('',(-1.,0.,0.));
#375 = ORIENTED_EDGE('',*,*,#376,.T.);
#376 = EDGE_CURVE('',#369,#180,#377,.T.);
#377 = LINE('',#378,#379);
#378 = CARTESIAN_POINT('',(0.3,10.,2.));
#379 = VECTOR('',#380,1.);
#380 = DIRECTION('',(0.,-1.,0.));
#381 = ORIENTED_EDGE('',*,*,#188,.T.);
#382 = PLANE('',#383);
#383 = AXIS2_PLACEMENT_3D('',#384,#385,#386);
#384 = CARTESIAN_POINT('',(1.,5.,2.));
#385 = DIRECTION('',(0.,0.,1.));
#386 = DIRECTION('',(1.,0.,0.));
#387 = ADVANCED_FACE('',(#388),#400,.T.);
#388 = FACE_BOUND('',#389,.F.);
#389 = EDGE_LOOP('',(#390,#391,#398,#399));
#390 = ORIENTED_EDGE('',*,*,#220,.F.);
#391 = ORIENTED_EDGE('',*,*,#392,.F.);
#392 = EDGE_CURVE('',#369,#213,#393,.T.);
#393 = CIRCLE('',#394,0.3);
#394 = AXIS2_PLACEMENT_3D('',#395,#396,#397);
#395 = CARTESIAN_POINT('',(0.3,9.7,1.7));
#396 = DIRECTION('',(0.,-1.,0.));
#397 = DIRECTION('',(3.700743415417E-16,0.,1.));
#398 = ORIENTED_EDGE('',*,*,#376,.T.);
#399 = ORIENTED_EDGE('',*,*,#327,.F.);
#400 = CYLINDRICAL_SURFACE('',#401,0.3);
#401 = AXIS2_PLACEMENT_3D('',#402,#403,#404);
#402 = CARTESIAN_POINT('',(0.3,10.,1.7));
#403 = DIRECTION('',(0.,-1.,0.));
#404 = DIRECTION('',(-1.,0.,0.));
#405 = ADVANCED_FACE('',(#406),#418,.T.);
#406 = FACE_BOUND('',#407,.F.);
#407 = EDGE_LOOP('',(#408,#409,#410,#417));
#408 = ORIENTED_EDGE('',*,*,#343,.F.);
#409 = ORIENTED_EDGE('',*,*,#360,.T.);
#410 = ORIENTED_EDGE('',*,*,#411,.F.);
#411 = EDGE_CURVE('',#238,#361,#412,.T.);
#412 = CIRCLE('',#413,0.3);
#413 = AXIS2_PLACEMENT_3D('',#414,#415,#416);
#414 = CARTESIAN_POINT('',(1.7,9.7,1.7));
#415 = DIRECTION('',(0.,-1.,0.));
#416 = DIRECTION('',(1.,0.,0.));
#417 = ORIENTED_EDGE('',*,*,#237,.F.);
#418 = CYLINDRICAL_SURFACE('',#419,0.3);
#419 = AXIS2_PLACEMENT_3D('',#420,#421,#422);
#420 = CARTESIAN_POINT('',(1.7,0.,1.7));
#421 = DIRECTION('',(0.,1.,0.));
#422 = DIRECTION('',(1.,0.,0.));
#423 = ADVANCED_FACE('',(#424),#435,.T.);
#424 = FACE_BOUND('',#425,.T.);
#425 = EDGE_LOOP('',(#426,#433,#434));
#426 = ORIENTED_EDGE('',*,*,#427,.F.);
#427 = EDGE_CURVE('',#262,#369,#428,.T.);
#428 = CIRCLE('',#429,0.3);
#429 = AXIS2_PLACEMENT_3D('',#430,#431,#432);
#430 = CARTESIAN_POINT('',(0.3,9.7,1.7));
#431 = DIRECTION('',(1.,0.,-3.700743415417E-16));
#432 = DIRECTION('',(3.700743415417E-16,0.,1.));
#433 = ORIENTED_EDGE('',*,*,#261,.T.);
#434 = ORIENTED_EDGE('',*,*,#392,.F.);
#435 = SPHERICAL_SURFACE('',#436,0.3);
#436 = AXIS2_PLACEMENT_3D('',#437,#438,#439);
#437 = CARTESIAN_POINT('',(0.3,9.7,1.7));
#438 = DIRECTION('',(0.,-1.,0.));
#439 = DIRECTION('',(3.700743415417E-16,0.,1.));
#440 = ADVANCED_FACE('',(#441),#452,.T.);
#441 = FACE_BOUND('',#442,.T.);
#442 = EDGE_LOOP('',(#443,#444,#451));
#443 = ORIENTED_EDGE('',*,*,#293,.F.);
#444 = ORIENTED_EDGE('',*,*,#445,.T.);
#445 = EDGE_CURVE('',#286,#361,#446,.T.);
#446 = CIRCLE('',#447,0.3);
#447 = AXIS2_PLACEMENT_3D('',#448,#449,#450);
#448 = CARTESIAN_POINT('',(1.7,9.7,1.7));
#449 = DIRECTION('',(1.,0.,-7.273661547325E-16));
#450 = DIRECTION('',(7.273661547325E-16,0.,1.));
#451 = ORIENTED_EDGE('',*,*,#411,.F.);
#452 = SPHERICAL_SURFACE('',#453,0.3);
#453 = AXIS2_PLACEMENT_3D('',#454,#455,#456);
#454 = CARTESIAN_POINT('',(1.7,9.7,1.7));
#455 = DIRECTION('',(0.,-1.,0.));
#456 = DIRECTION('',(1.,0.,0.));
#457 = ADVANCED_FACE('',(#458),#464,.T.);
#458 = FACE_BOUND('',#459,.F.);
#459 = EDGE_LOOP('',(#460,#461,#462,#463));
#460 = ORIENTED_EDGE('',*,*,#445,.T.);
#461 = ORIENTED_EDGE('',*,*,#368,.T.);
#462 = ORIENTED_EDGE('',*,*,#427,.F.);
#463 = ORIENTED_EDGE('',*,*,#311,.F.);
#464 = CYLINDRICAL_SURFACE('',#465,0.3);
#465 = AXIS2_PLACEMENT_3D('',#466,#467,#468);
#466 = CARTESIAN_POINT('',(2.,9.7,1.7));
#467 = DIRECTION('',(-1.,0.,0.));
#468 = DIRECTION('',(0.,1.,0.));
#469 = ( GEOMETRIC_REPRESENTATION_CONTEXT(3) 
GLOBAL_UNCERTAINTY_ASSIGNED_CONTEXT((#473)) GLOBAL_UNIT_ASSIGNED_CONTEXT
((#470,#471,#472)) REPRESENTATION_CONTEXT('Context #1',
  '3D Context with UNIT and UNCERTAINTY') );
#470 = ( LENGTH_UNIT() NAMED_UNIT(*) SI_UNIT(.MILLI.,.METRE.) );
#471 = ( NAMED_UNIT(*) PLANE_ANGLE_UNIT() SI_UNIT($,.RADIAN.) );
#472 = ( NAMED_UNIT(*) SI_UNIT($,.STERADIAN.) SOLID_ANGLE_UNIT() );
#473 = UNCERTAINTY_MEASURE_WITH_UNIT(LENGTH_MEASURE(1.E-07),#470,
  'distance_accuracy_value','confusion accuracy');
#474 = PRODUCT_RELATED_PRODUCT_CATEGORY('part',$,(#7));
#475 = MECHANICAL_DESIGN_GEOMETRIC_PRESENTATION_REPRESENTATION('',(#476)
  ,#469);
#476 = STYLED_ITEM('color',(#477),#15);
#477 = PRESENTATION_STYLE_ASSIGNMENT((#478,#484));
#478 = SURFACE_STYLE_USAGE(.BOTH.,#479);
#479 = SURFACE_SIDE_STYLE('',(#480));
#480 = SURFACE_STYLE_FILL_AREA(#481);
#481 = FILL_AREA_STYLE('',(#482));
#482 = FILL_AREA_STYLE_COLOUR('',#483);
#483 = COLOUR_RGB('',0.447059003357,0.474510015008,0.501960993452);
#484 = CURVE_STYLE('',#485,POSITIVE_LENGTH_MEASURE(0.1),#486);
#485 = DRAUGHTING_PRE_DEFINED_CURVE_FONT('continuous');
#486 = COLOUR_RGB('',9.803921802644E-02,9.803921802644E-02,
  9.803921802644E-02);
ENDSEC;
END-ISO-10303-21;
