ISO-10303-21;
HEADER;
/* Generated by software containing ST-Developer
 * from STEP Tools, Inc. (www.steptools.com) 
 */
/* OPTION: using custom schema-name function */

FILE_DESCRIPTION(
/* description */ (''),
/* implementation_level */ '2;1');

FILE_NAME(
/* name */ '430250208wbm000_01_214.stp',
/* time_stamp */ '2021-12-06T13:14:18+06:00',
/* author */ (''),
/* organization */ (''),
/* preprocessor_version */ 'ST-DEVELOPER v16.7',
/* originating_system */ 'SIEMENS PLM Software NX 1919',
/* authorisation */ '');

FILE_SCHEMA (('AUTOMOTIVE_DESIGN { 1 0 10303 214 3 1 1 1 }'));
ENDSEC;

DATA;
#10=SHAPE_REPRESENTATION_RELATIONSHIP('None',
'relationship between 430250208wbm000_01-None and 430250208wbm000_01-N
one',#22,#11);
#11=ADVANCED_BREP_SHAPE_REPRESENTATION('430250208wbm000_01-None',(#32),
#1635);
#12=SHAPE_DEFINITION_REPRESENTATION(#13,#22);
#13=PRODUCT_DEFINITION_SHAPE('','',#14);
#14=PRODUCT_DEFINITION(' ','',#16,#15);
#15=PRODUCT_DEFINITION_CONTEXT('part definition',#21,'design');
#16=PRODUCT_DEFINITION_FORMATION_WITH_SPECIFIED_SOURCE(' ',' ',#18,
 .NOT_KNOWN.);
#17=PRODUCT_RELATED_PRODUCT_CATEGORY('part','',(#18));
#18=PRODUCT('430250208wbm000_01','430250208wbm000_01',' ',(#19));
#19=PRODUCT_CONTEXT(' ',#21,'mechanical');
#20=APPLICATION_PROTOCOL_DEFINITION('international standard',
'automotive_design',2010,#21);
#21=APPLICATION_CONTEXT(
'core data for automotive mechanical design processes');
#22=SHAPE_REPRESENTATION('430250208wbm000_01-None',(#1042),#1635);
#23=PRESENTATION_LAYER_ASSIGNMENT('1','Layer 1',(#32));
#24=STYLED_ITEM('',(#25),#32);
#25=PRESENTATION_STYLE_ASSIGNMENT((#26));
#26=SURFACE_STYLE_USAGE(.BOTH.,#27);
#27=SURFACE_SIDE_STYLE('',(#28));
#28=SURFACE_STYLE_FILL_AREA(#29);
#29=FILL_AREA_STYLE('',(#30));
#30=FILL_AREA_STYLE_COLOUR('',#31);
#31=COLOUR_RGB('Medium Steel',0.596063172350652,0.666666666666667,0.686259250782025);
#32=MANIFOLD_SOLID_BREP('',#33);
#33=CLOSED_SHELL('',(#87,#88,#89,#90,#91,#92,#93,#94,#95,#96,#97,#98,#99,
#100,#101,#102,#103,#104,#105,#106,#107,#108,#109,#110,#111,#112,#113,#114,
#115,#116,#117,#118,#119,#120,#121,#122,#123,#124,#125,#126,#127,#128,#129,
#130,#131,#132,#133,#134,#135,#136,#137,#138,#139,#140));
#34=CYLINDRICAL_SURFACE('',#1061,0.300000000000001);
#35=CIRCLE('',#1048,0.300000000000001);
#36=CIRCLE('',#1050,0.300000000000001);
#37=FACE_OUTER_BOUND('',#207,.T.);
#38=FACE_OUTER_BOUND('',#208,.T.);
#39=FACE_OUTER_BOUND('',#209,.T.);
#40=FACE_OUTER_BOUND('',#210,.T.);
#41=FACE_OUTER_BOUND('',#214,.T.);
#42=FACE_OUTER_BOUND('',#215,.T.);
#43=FACE_OUTER_BOUND('',#216,.T.);
#44=FACE_OUTER_BOUND('',#217,.T.);
#45=FACE_OUTER_BOUND('',#218,.T.);
#46=FACE_OUTER_BOUND('',#219,.T.);
#47=FACE_OUTER_BOUND('',#220,.T.);
#48=FACE_OUTER_BOUND('',#221,.T.);
#49=FACE_OUTER_BOUND('',#222,.T.);
#50=FACE_OUTER_BOUND('',#223,.T.);
#51=FACE_OUTER_BOUND('',#224,.T.);
#52=FACE_OUTER_BOUND('',#225,.T.);
#53=FACE_OUTER_BOUND('',#226,.T.);
#54=FACE_OUTER_BOUND('',#227,.T.);
#55=FACE_OUTER_BOUND('',#228,.T.);
#56=FACE_OUTER_BOUND('',#229,.T.);
#57=FACE_OUTER_BOUND('',#230,.T.);
#58=FACE_OUTER_BOUND('',#231,.T.);
#59=FACE_OUTER_BOUND('',#232,.T.);
#60=FACE_OUTER_BOUND('',#233,.T.);
#61=FACE_OUTER_BOUND('',#234,.T.);
#62=FACE_OUTER_BOUND('',#235,.T.);
#63=FACE_OUTER_BOUND('',#236,.T.);
#64=FACE_OUTER_BOUND('',#237,.T.);
#65=FACE_OUTER_BOUND('',#238,.T.);
#66=FACE_OUTER_BOUND('',#239,.T.);
#67=FACE_OUTER_BOUND('',#240,.T.);
#68=FACE_OUTER_BOUND('',#241,.T.);
#69=FACE_OUTER_BOUND('',#244,.T.);
#70=FACE_OUTER_BOUND('',#245,.T.);
#71=FACE_OUTER_BOUND('',#246,.T.);
#72=FACE_OUTER_BOUND('',#247,.T.);
#73=FACE_OUTER_BOUND('',#250,.T.);
#74=FACE_OUTER_BOUND('',#251,.T.);
#75=FACE_OUTER_BOUND('',#252,.T.);
#76=FACE_OUTER_BOUND('',#253,.T.);
#77=FACE_OUTER_BOUND('',#254,.T.);
#78=FACE_OUTER_BOUND('',#255,.T.);
#79=FACE_OUTER_BOUND('',#256,.T.);
#80=FACE_OUTER_BOUND('',#257,.T.);
#81=FACE_OUTER_BOUND('',#258,.T.);
#82=FACE_OUTER_BOUND('',#259,.T.);
#83=FACE_OUTER_BOUND('',#260,.T.);
#84=FACE_OUTER_BOUND('',#261,.T.);
#85=FACE_OUTER_BOUND('',#262,.T.);
#86=FACE_OUTER_BOUND('',#263,.T.);
#87=ADVANCED_FACE('',(#194,#195,#196),#141,.F.);
#88=ADVANCED_FACE('',(#37),#142,.F.);
#89=ADVANCED_FACE('',(#38),#143,.F.);
#90=ADVANCED_FACE('',(#39),#144,.F.);
#91=ADVANCED_FACE('',(#40),#145,.F.);
#92=ADVANCED_FACE('',(#197,#198,#199),#146,.F.);
#93=ADVANCED_FACE('',(#41),#147,.F.);
#94=ADVANCED_FACE('',(#42),#148,.F.);
#95=ADVANCED_FACE('',(#43),#149,.T.);
#96=ADVANCED_FACE('',(#44),#150,.F.);
#97=ADVANCED_FACE('',(#45),#151,.F.);
#98=ADVANCED_FACE('',(#46),#152,.F.);
#99=ADVANCED_FACE('',(#47),#153,.F.);
#100=ADVANCED_FACE('',(#48),#154,.F.);
#101=ADVANCED_FACE('',(#49),#155,.F.);
#102=ADVANCED_FACE('',(#50),#156,.F.);
#103=ADVANCED_FACE('',(#51),#34,.T.);
#104=ADVANCED_FACE('',(#52),#157,.T.);
#105=ADVANCED_FACE('',(#53),#158,.T.);
#106=ADVANCED_FACE('',(#54),#159,.T.);
#107=ADVANCED_FACE('',(#55),#160,.T.);
#108=ADVANCED_FACE('',(#56),#161,.T.);
#109=ADVANCED_FACE('',(#57),#162,.T.);
#110=ADVANCED_FACE('',(#58),#163,.T.);
#111=ADVANCED_FACE('',(#59),#164,.T.);
#112=ADVANCED_FACE('',(#60),#165,.T.);
#113=ADVANCED_FACE('',(#61),#166,.T.);
#114=ADVANCED_FACE('',(#62),#167,.T.);
#115=ADVANCED_FACE('',(#63),#168,.T.);
#116=ADVANCED_FACE('',(#64),#169,.T.);
#117=ADVANCED_FACE('',(#65),#170,.T.);
#118=ADVANCED_FACE('',(#66),#171,.T.);
#119=ADVANCED_FACE('',(#67),#172,.T.);
#120=ADVANCED_FACE('',(#68),#173,.T.);
#121=ADVANCED_FACE('',(#200,#201),#174,.F.);
#122=ADVANCED_FACE('',(#69),#175,.T.);
#123=ADVANCED_FACE('',(#70),#176,.T.);
#124=ADVANCED_FACE('',(#71),#177,.T.);
#125=ADVANCED_FACE('',(#72),#178,.T.);
#126=ADVANCED_FACE('',(#202,#203),#179,.F.);
#127=ADVANCED_FACE('',(#73),#180,.F.);
#128=ADVANCED_FACE('',(#74),#181,.F.);
#129=ADVANCED_FACE('',(#75),#182,.F.);
#130=ADVANCED_FACE('',(#76),#183,.F.);
#131=ADVANCED_FACE('',(#77),#184,.F.);
#132=ADVANCED_FACE('',(#78),#185,.F.);
#133=ADVANCED_FACE('',(#79),#186,.F.);
#134=ADVANCED_FACE('',(#80),#187,.F.);
#135=ADVANCED_FACE('',(#81),#188,.F.);
#136=ADVANCED_FACE('',(#82),#189,.F.);
#137=ADVANCED_FACE('',(#83),#190,.F.);
#138=ADVANCED_FACE('',(#84),#191,.F.);
#139=ADVANCED_FACE('',(#85),#192,.F.);
#140=ADVANCED_FACE('',(#86),#193,.F.);
#141=PLANE('',#1043);
#142=PLANE('',#1044);
#143=PLANE('',#1045);
#144=PLANE('',#1046);
#145=PLANE('',#1047);
#146=PLANE('',#1049);
#147=PLANE('',#1051);
#148=PLANE('',#1052);
#149=PLANE('',#1053);
#150=PLANE('',#1054);
#151=PLANE('',#1055);
#152=PLANE('',#1056);
#153=PLANE('',#1057);
#154=PLANE('',#1058);
#155=PLANE('',#1059);
#156=PLANE('',#1060);
#157=PLANE('',#1062);
#158=PLANE('',#1063);
#159=PLANE('',#1064);
#160=PLANE('',#1065);
#161=PLANE('',#1066);
#162=PLANE('',#1067);
#163=PLANE('',#1068);
#164=PLANE('',#1069);
#165=PLANE('',#1070);
#166=PLANE('',#1071);
#167=PLANE('',#1072);
#168=PLANE('',#1073);
#169=PLANE('',#1074);
#170=PLANE('',#1075);
#171=PLANE('',#1076);
#172=PLANE('',#1077);
#173=PLANE('',#1078);
#174=PLANE('',#1079);
#175=PLANE('',#1080);
#176=PLANE('',#1081);
#177=PLANE('',#1082);
#178=PLANE('',#1083);
#179=PLANE('',#1084);
#180=PLANE('',#1085);
#181=PLANE('',#1086);
#182=PLANE('',#1087);
#183=PLANE('',#1088);
#184=PLANE('',#1089);
#185=PLANE('',#1090);
#186=PLANE('',#1091);
#187=PLANE('',#1092);
#188=PLANE('',#1093);
#189=PLANE('',#1094);
#190=PLANE('',#1095);
#191=PLANE('',#1096);
#192=PLANE('',#1097);
#193=PLANE('',#1098);
#194=FACE_BOUND('',#204,.T.);
#195=FACE_BOUND('',#205,.T.);
#196=FACE_BOUND('',#206,.T.);
#197=FACE_BOUND('',#211,.T.);
#198=FACE_BOUND('',#212,.T.);
#199=FACE_BOUND('',#213,.T.);
#200=FACE_BOUND('',#242,.T.);
#201=FACE_BOUND('',#243,.T.);
#202=FACE_BOUND('',#248,.T.);
#203=FACE_BOUND('',#249,.T.);
#204=EDGE_LOOP('',(#264,#265,#266,#267));
#205=EDGE_LOOP('',(#268,#269,#270,#271));
#206=EDGE_LOOP('',(#272,#273,#274,#275));
#207=EDGE_LOOP('',(#276,#277,#278,#279));
#208=EDGE_LOOP('',(#280,#281,#282,#283));
#209=EDGE_LOOP('',(#284,#285,#286,#287,#288,#289,#290,#291));
#210=EDGE_LOOP('',(#292,#293,#294,#295,#296,#297,#298,#299,#300,#301,#302));
#211=EDGE_LOOP('',(#303,#304,#305,#306));
#212=EDGE_LOOP('',(#307,#308,#309,#310,#311));
#213=EDGE_LOOP('',(#312,#313,#314,#315,#316,#317));
#214=EDGE_LOOP('',(#318,#319,#320,#321,#322,#323,#324,#325,#326,#327));
#215=EDGE_LOOP('',(#328,#329,#330,#331));
#216=EDGE_LOOP('',(#332,#333,#334,#335,#336,#337,#338,#339,#340,#341,#342));
#217=EDGE_LOOP('',(#343,#344,#345,#346));
#218=EDGE_LOOP('',(#347,#348,#349,#350));
#219=EDGE_LOOP('',(#351,#352,#353,#354));
#220=EDGE_LOOP('',(#355,#356,#357,#358));
#221=EDGE_LOOP('',(#359,#360,#361,#362));
#222=EDGE_LOOP('',(#363,#364,#365,#366));
#223=EDGE_LOOP('',(#367,#368,#369,#370));
#224=EDGE_LOOP('',(#371,#372,#373,#374));
#225=EDGE_LOOP('',(#375,#376,#377,#378));
#226=EDGE_LOOP('',(#379,#380,#381,#382));
#227=EDGE_LOOP('',(#383,#384,#385,#386));
#228=EDGE_LOOP('',(#387,#388,#389,#390));
#229=EDGE_LOOP('',(#391,#392,#393,#394));
#230=EDGE_LOOP('',(#395,#396,#397,#398));
#231=EDGE_LOOP('',(#399,#400,#401,#402));
#232=EDGE_LOOP('',(#403,#404,#405,#406));
#233=EDGE_LOOP('',(#407,#408,#409,#410));
#234=EDGE_LOOP('',(#411,#412,#413,#414));
#235=EDGE_LOOP('',(#415,#416,#417,#418));
#236=EDGE_LOOP('',(#419,#420,#421,#422));
#237=EDGE_LOOP('',(#423,#424,#425,#426));
#238=EDGE_LOOP('',(#427,#428,#429,#430));
#239=EDGE_LOOP('',(#431,#432,#433,#434));
#240=EDGE_LOOP('',(#435,#436,#437,#438));
#241=EDGE_LOOP('',(#439,#440,#441,#442));
#242=EDGE_LOOP('',(#443,#444,#445,#446,#447,#448));
#243=EDGE_LOOP('',(#449,#450,#451,#452,#453));
#244=EDGE_LOOP('',(#454,#455,#456,#457));
#245=EDGE_LOOP('',(#458,#459,#460,#461));
#246=EDGE_LOOP('',(#462,#463,#464,#465));
#247=EDGE_LOOP('',(#466,#467,#468,#469));
#248=EDGE_LOOP('',(#470,#471,#472,#473,#474,#475));
#249=EDGE_LOOP('',(#476,#477,#478,#479));
#250=EDGE_LOOP('',(#480,#481,#482,#483));
#251=EDGE_LOOP('',(#484,#485,#486,#487));
#252=EDGE_LOOP('',(#488,#489,#490,#491));
#253=EDGE_LOOP('',(#492,#493,#494,#495));
#254=EDGE_LOOP('',(#496,#497,#498,#499));
#255=EDGE_LOOP('',(#500,#501,#502,#503));
#256=EDGE_LOOP('',(#504,#505,#506,#507,#508,#509));
#257=EDGE_LOOP('',(#510,#511,#512,#513));
#258=EDGE_LOOP('',(#514,#515,#516,#517));
#259=EDGE_LOOP('',(#518,#519,#520,#521));
#260=EDGE_LOOP('',(#522,#523,#524,#525));
#261=EDGE_LOOP('',(#526,#527,#528,#529));
#262=EDGE_LOOP('',(#530,#531,#532,#533));
#263=EDGE_LOOP('',(#534,#535,#536,#537,#538,#539));
#264=ORIENTED_EDGE('',*,*,#632,.F.);
#265=ORIENTED_EDGE('',*,*,#633,.F.);
#266=ORIENTED_EDGE('',*,*,#634,.F.);
#267=ORIENTED_EDGE('',*,*,#635,.F.);
#268=ORIENTED_EDGE('',*,*,#636,.F.);
#269=ORIENTED_EDGE('',*,*,#637,.T.);
#270=ORIENTED_EDGE('',*,*,#638,.T.);
#271=ORIENTED_EDGE('',*,*,#639,.F.);
#272=ORIENTED_EDGE('',*,*,#640,.F.);
#273=ORIENTED_EDGE('',*,*,#641,.F.);
#274=ORIENTED_EDGE('',*,*,#642,.F.);
#275=ORIENTED_EDGE('',*,*,#643,.F.);
#276=ORIENTED_EDGE('',*,*,#644,.F.);
#277=ORIENTED_EDGE('',*,*,#645,.F.);
#278=ORIENTED_EDGE('',*,*,#646,.F.);
#279=ORIENTED_EDGE('',*,*,#647,.T.);
#280=ORIENTED_EDGE('',*,*,#648,.F.);
#281=ORIENTED_EDGE('',*,*,#649,.T.);
#282=ORIENTED_EDGE('',*,*,#650,.T.);
#283=ORIENTED_EDGE('',*,*,#651,.F.);
#284=ORIENTED_EDGE('',*,*,#652,.F.);
#285=ORIENTED_EDGE('',*,*,#653,.F.);
#286=ORIENTED_EDGE('',*,*,#654,.F.);
#287=ORIENTED_EDGE('',*,*,#655,.F.);
#288=ORIENTED_EDGE('',*,*,#636,.T.);
#289=ORIENTED_EDGE('',*,*,#656,.F.);
#290=ORIENTED_EDGE('',*,*,#657,.F.);
#291=ORIENTED_EDGE('',*,*,#658,.T.);
#292=ORIENTED_EDGE('',*,*,#658,.F.);
#293=ORIENTED_EDGE('',*,*,#659,.F.);
#294=ORIENTED_EDGE('',*,*,#650,.F.);
#295=ORIENTED_EDGE('',*,*,#660,.F.);
#296=ORIENTED_EDGE('',*,*,#661,.F.);
#297=ORIENTED_EDGE('',*,*,#662,.F.);
#298=ORIENTED_EDGE('',*,*,#663,.F.);
#299=ORIENTED_EDGE('',*,*,#664,.F.);
#300=ORIENTED_EDGE('',*,*,#665,.F.);
#301=ORIENTED_EDGE('',*,*,#666,.F.);
#302=ORIENTED_EDGE('',*,*,#667,.F.);
#303=ORIENTED_EDGE('',*,*,#668,.T.);
#304=ORIENTED_EDGE('',*,*,#669,.T.);
#305=ORIENTED_EDGE('',*,*,#670,.T.);
#306=ORIENTED_EDGE('',*,*,#671,.T.);
#307=ORIENTED_EDGE('',*,*,#672,.T.);
#308=ORIENTED_EDGE('',*,*,#673,.T.);
#309=ORIENTED_EDGE('',*,*,#674,.T.);
#310=ORIENTED_EDGE('',*,*,#675,.T.);
#311=ORIENTED_EDGE('',*,*,#676,.T.);
#312=ORIENTED_EDGE('',*,*,#660,.T.);
#313=ORIENTED_EDGE('',*,*,#649,.F.);
#314=ORIENTED_EDGE('',*,*,#677,.F.);
#315=ORIENTED_EDGE('',*,*,#647,.F.);
#316=ORIENTED_EDGE('',*,*,#678,.F.);
#317=ORIENTED_EDGE('',*,*,#679,.T.);
#318=ORIENTED_EDGE('',*,*,#680,.F.);
#319=ORIENTED_EDGE('',*,*,#651,.T.);
#320=ORIENTED_EDGE('',*,*,#659,.T.);
#321=ORIENTED_EDGE('',*,*,#657,.T.);
#322=ORIENTED_EDGE('',*,*,#681,.T.);
#323=ORIENTED_EDGE('',*,*,#682,.F.);
#324=ORIENTED_EDGE('',*,*,#683,.F.);
#325=ORIENTED_EDGE('',*,*,#654,.T.);
#326=ORIENTED_EDGE('',*,*,#684,.F.);
#327=ORIENTED_EDGE('',*,*,#645,.T.);
#328=ORIENTED_EDGE('',*,*,#682,.T.);
#329=ORIENTED_EDGE('',*,*,#685,.T.);
#330=ORIENTED_EDGE('',*,*,#638,.F.);
#331=ORIENTED_EDGE('',*,*,#686,.T.);
#332=ORIENTED_EDGE('',*,*,#684,.T.);
#333=ORIENTED_EDGE('',*,*,#653,.T.);
#334=ORIENTED_EDGE('',*,*,#687,.T.);
#335=ORIENTED_EDGE('',*,*,#688,.T.);
#336=ORIENTED_EDGE('',*,*,#689,.T.);
#337=ORIENTED_EDGE('',*,*,#690,.T.);
#338=ORIENTED_EDGE('',*,*,#691,.T.);
#339=ORIENTED_EDGE('',*,*,#692,.T.);
#340=ORIENTED_EDGE('',*,*,#693,.T.);
#341=ORIENTED_EDGE('',*,*,#678,.T.);
#342=ORIENTED_EDGE('',*,*,#646,.T.);
#343=ORIENTED_EDGE('',*,*,#666,.T.);
#344=ORIENTED_EDGE('',*,*,#694,.F.);
#345=ORIENTED_EDGE('',*,*,#688,.F.);
#346=ORIENTED_EDGE('',*,*,#695,.T.);
#347=ORIENTED_EDGE('',*,*,#665,.T.);
#348=ORIENTED_EDGE('',*,*,#696,.F.);
#349=ORIENTED_EDGE('',*,*,#689,.F.);
#350=ORIENTED_EDGE('',*,*,#694,.T.);
#351=ORIENTED_EDGE('',*,*,#664,.T.);
#352=ORIENTED_EDGE('',*,*,#697,.F.);
#353=ORIENTED_EDGE('',*,*,#690,.F.);
#354=ORIENTED_EDGE('',*,*,#696,.T.);
#355=ORIENTED_EDGE('',*,*,#663,.T.);
#356=ORIENTED_EDGE('',*,*,#698,.F.);
#357=ORIENTED_EDGE('',*,*,#691,.F.);
#358=ORIENTED_EDGE('',*,*,#697,.T.);
#359=ORIENTED_EDGE('',*,*,#662,.T.);
#360=ORIENTED_EDGE('',*,*,#699,.F.);
#361=ORIENTED_EDGE('',*,*,#692,.F.);
#362=ORIENTED_EDGE('',*,*,#698,.T.);
#363=ORIENTED_EDGE('',*,*,#661,.T.);
#364=ORIENTED_EDGE('',*,*,#679,.F.);
#365=ORIENTED_EDGE('',*,*,#693,.F.);
#366=ORIENTED_EDGE('',*,*,#699,.T.);
#367=ORIENTED_EDGE('',*,*,#667,.T.);
#368=ORIENTED_EDGE('',*,*,#695,.F.);
#369=ORIENTED_EDGE('',*,*,#687,.F.);
#370=ORIENTED_EDGE('',*,*,#652,.T.);
#371=ORIENTED_EDGE('',*,*,#648,.T.);
#372=ORIENTED_EDGE('',*,*,#680,.T.);
#373=ORIENTED_EDGE('',*,*,#644,.T.);
#374=ORIENTED_EDGE('',*,*,#677,.T.);
#375=ORIENTED_EDGE('',*,*,#686,.F.);
#376=ORIENTED_EDGE('',*,*,#637,.F.);
#377=ORIENTED_EDGE('',*,*,#655,.T.);
#378=ORIENTED_EDGE('',*,*,#683,.T.);
#379=ORIENTED_EDGE('',*,*,#685,.F.);
#380=ORIENTED_EDGE('',*,*,#681,.F.);
#381=ORIENTED_EDGE('',*,*,#656,.T.);
#382=ORIENTED_EDGE('',*,*,#639,.T.);
#383=ORIENTED_EDGE('',*,*,#700,.T.);
#384=ORIENTED_EDGE('',*,*,#701,.T.);
#385=ORIENTED_EDGE('',*,*,#632,.T.);
#386=ORIENTED_EDGE('',*,*,#702,.F.);
#387=ORIENTED_EDGE('',*,*,#703,.T.);
#388=ORIENTED_EDGE('',*,*,#702,.T.);
#389=ORIENTED_EDGE('',*,*,#635,.T.);
#390=ORIENTED_EDGE('',*,*,#704,.F.);
#391=ORIENTED_EDGE('',*,*,#705,.T.);
#392=ORIENTED_EDGE('',*,*,#704,.T.);
#393=ORIENTED_EDGE('',*,*,#634,.T.);
#394=ORIENTED_EDGE('',*,*,#706,.F.);
#395=ORIENTED_EDGE('',*,*,#707,.T.);
#396=ORIENTED_EDGE('',*,*,#706,.T.);
#397=ORIENTED_EDGE('',*,*,#633,.T.);
#398=ORIENTED_EDGE('',*,*,#701,.F.);
#399=ORIENTED_EDGE('',*,*,#700,.F.);
#400=ORIENTED_EDGE('',*,*,#703,.F.);
#401=ORIENTED_EDGE('',*,*,#705,.F.);
#402=ORIENTED_EDGE('',*,*,#707,.F.);
#403=ORIENTED_EDGE('',*,*,#708,.T.);
#404=ORIENTED_EDGE('',*,*,#709,.T.);
#405=ORIENTED_EDGE('',*,*,#640,.T.);
#406=ORIENTED_EDGE('',*,*,#710,.F.);
#407=ORIENTED_EDGE('',*,*,#711,.T.);
#408=ORIENTED_EDGE('',*,*,#710,.T.);
#409=ORIENTED_EDGE('',*,*,#643,.T.);
#410=ORIENTED_EDGE('',*,*,#712,.F.);
#411=ORIENTED_EDGE('',*,*,#713,.T.);
#412=ORIENTED_EDGE('',*,*,#712,.T.);
#413=ORIENTED_EDGE('',*,*,#642,.T.);
#414=ORIENTED_EDGE('',*,*,#714,.F.);
#415=ORIENTED_EDGE('',*,*,#715,.T.);
#416=ORIENTED_EDGE('',*,*,#714,.T.);
#417=ORIENTED_EDGE('',*,*,#641,.T.);
#418=ORIENTED_EDGE('',*,*,#709,.F.);
#419=ORIENTED_EDGE('',*,*,#708,.F.);
#420=ORIENTED_EDGE('',*,*,#711,.F.);
#421=ORIENTED_EDGE('',*,*,#713,.F.);
#422=ORIENTED_EDGE('',*,*,#715,.F.);
#423=ORIENTED_EDGE('',*,*,#673,.F.);
#424=ORIENTED_EDGE('',*,*,#716,.F.);
#425=ORIENTED_EDGE('',*,*,#717,.T.);
#426=ORIENTED_EDGE('',*,*,#718,.T.);
#427=ORIENTED_EDGE('',*,*,#674,.F.);
#428=ORIENTED_EDGE('',*,*,#718,.F.);
#429=ORIENTED_EDGE('',*,*,#719,.T.);
#430=ORIENTED_EDGE('',*,*,#720,.T.);
#431=ORIENTED_EDGE('',*,*,#675,.F.);
#432=ORIENTED_EDGE('',*,*,#720,.F.);
#433=ORIENTED_EDGE('',*,*,#721,.T.);
#434=ORIENTED_EDGE('',*,*,#722,.T.);
#435=ORIENTED_EDGE('',*,*,#676,.F.);
#436=ORIENTED_EDGE('',*,*,#722,.F.);
#437=ORIENTED_EDGE('',*,*,#723,.T.);
#438=ORIENTED_EDGE('',*,*,#724,.T.);
#439=ORIENTED_EDGE('',*,*,#672,.F.);
#440=ORIENTED_EDGE('',*,*,#724,.F.);
#441=ORIENTED_EDGE('',*,*,#725,.T.);
#442=ORIENTED_EDGE('',*,*,#716,.T.);
#443=ORIENTED_EDGE('',*,*,#726,.T.);
#444=ORIENTED_EDGE('',*,*,#727,.T.);
#445=ORIENTED_EDGE('',*,*,#728,.T.);
#446=ORIENTED_EDGE('',*,*,#729,.T.);
#447=ORIENTED_EDGE('',*,*,#730,.T.);
#448=ORIENTED_EDGE('',*,*,#731,.T.);
#449=ORIENTED_EDGE('',*,*,#717,.F.);
#450=ORIENTED_EDGE('',*,*,#725,.F.);
#451=ORIENTED_EDGE('',*,*,#723,.F.);
#452=ORIENTED_EDGE('',*,*,#721,.F.);
#453=ORIENTED_EDGE('',*,*,#719,.F.);
#454=ORIENTED_EDGE('',*,*,#669,.F.);
#455=ORIENTED_EDGE('',*,*,#732,.F.);
#456=ORIENTED_EDGE('',*,*,#733,.T.);
#457=ORIENTED_EDGE('',*,*,#734,.T.);
#458=ORIENTED_EDGE('',*,*,#670,.F.);
#459=ORIENTED_EDGE('',*,*,#734,.F.);
#460=ORIENTED_EDGE('',*,*,#735,.T.);
#461=ORIENTED_EDGE('',*,*,#736,.T.);
#462=ORIENTED_EDGE('',*,*,#671,.F.);
#463=ORIENTED_EDGE('',*,*,#736,.F.);
#464=ORIENTED_EDGE('',*,*,#737,.T.);
#465=ORIENTED_EDGE('',*,*,#738,.T.);
#466=ORIENTED_EDGE('',*,*,#668,.F.);
#467=ORIENTED_EDGE('',*,*,#738,.F.);
#468=ORIENTED_EDGE('',*,*,#739,.T.);
#469=ORIENTED_EDGE('',*,*,#732,.T.);
#470=ORIENTED_EDGE('',*,*,#740,.T.);
#471=ORIENTED_EDGE('',*,*,#741,.T.);
#472=ORIENTED_EDGE('',*,*,#742,.T.);
#473=ORIENTED_EDGE('',*,*,#743,.T.);
#474=ORIENTED_EDGE('',*,*,#744,.T.);
#475=ORIENTED_EDGE('',*,*,#745,.T.);
#476=ORIENTED_EDGE('',*,*,#733,.F.);
#477=ORIENTED_EDGE('',*,*,#739,.F.);
#478=ORIENTED_EDGE('',*,*,#737,.F.);
#479=ORIENTED_EDGE('',*,*,#735,.F.);
#480=ORIENTED_EDGE('',*,*,#746,.F.);
#481=ORIENTED_EDGE('',*,*,#747,.T.);
#482=ORIENTED_EDGE('',*,*,#741,.F.);
#483=ORIENTED_EDGE('',*,*,#748,.F.);
#484=ORIENTED_EDGE('',*,*,#749,.F.);
#485=ORIENTED_EDGE('',*,*,#750,.T.);
#486=ORIENTED_EDGE('',*,*,#742,.F.);
#487=ORIENTED_EDGE('',*,*,#747,.F.);
#488=ORIENTED_EDGE('',*,*,#751,.F.);
#489=ORIENTED_EDGE('',*,*,#752,.T.);
#490=ORIENTED_EDGE('',*,*,#743,.F.);
#491=ORIENTED_EDGE('',*,*,#750,.F.);
#492=ORIENTED_EDGE('',*,*,#753,.F.);
#493=ORIENTED_EDGE('',*,*,#754,.T.);
#494=ORIENTED_EDGE('',*,*,#744,.F.);
#495=ORIENTED_EDGE('',*,*,#752,.F.);
#496=ORIENTED_EDGE('',*,*,#755,.F.);
#497=ORIENTED_EDGE('',*,*,#756,.T.);
#498=ORIENTED_EDGE('',*,*,#745,.F.);
#499=ORIENTED_EDGE('',*,*,#754,.F.);
#500=ORIENTED_EDGE('',*,*,#757,.F.);
#501=ORIENTED_EDGE('',*,*,#748,.T.);
#502=ORIENTED_EDGE('',*,*,#740,.F.);
#503=ORIENTED_EDGE('',*,*,#756,.F.);
#504=ORIENTED_EDGE('',*,*,#746,.T.);
#505=ORIENTED_EDGE('',*,*,#757,.T.);
#506=ORIENTED_EDGE('',*,*,#755,.T.);
#507=ORIENTED_EDGE('',*,*,#753,.T.);
#508=ORIENTED_EDGE('',*,*,#751,.T.);
#509=ORIENTED_EDGE('',*,*,#749,.T.);
#510=ORIENTED_EDGE('',*,*,#758,.F.);
#511=ORIENTED_EDGE('',*,*,#759,.T.);
#512=ORIENTED_EDGE('',*,*,#727,.F.);
#513=ORIENTED_EDGE('',*,*,#760,.F.);
#514=ORIENTED_EDGE('',*,*,#761,.F.);
#515=ORIENTED_EDGE('',*,*,#762,.T.);
#516=ORIENTED_EDGE('',*,*,#728,.F.);
#517=ORIENTED_EDGE('',*,*,#759,.F.);
#518=ORIENTED_EDGE('',*,*,#763,.F.);
#519=ORIENTED_EDGE('',*,*,#764,.T.);
#520=ORIENTED_EDGE('',*,*,#729,.F.);
#521=ORIENTED_EDGE('',*,*,#762,.F.);
#522=ORIENTED_EDGE('',*,*,#765,.F.);
#523=ORIENTED_EDGE('',*,*,#766,.T.);
#524=ORIENTED_EDGE('',*,*,#730,.F.);
#525=ORIENTED_EDGE('',*,*,#764,.F.);
#526=ORIENTED_EDGE('',*,*,#767,.F.);
#527=ORIENTED_EDGE('',*,*,#768,.T.);
#528=ORIENTED_EDGE('',*,*,#731,.F.);
#529=ORIENTED_EDGE('',*,*,#766,.F.);
#530=ORIENTED_EDGE('',*,*,#769,.F.);
#531=ORIENTED_EDGE('',*,*,#760,.T.);
#532=ORIENTED_EDGE('',*,*,#726,.F.);
#533=ORIENTED_EDGE('',*,*,#768,.F.);
#534=ORIENTED_EDGE('',*,*,#758,.T.);
#535=ORIENTED_EDGE('',*,*,#769,.T.);
#536=ORIENTED_EDGE('',*,*,#767,.T.);
#537=ORIENTED_EDGE('',*,*,#765,.T.);
#538=ORIENTED_EDGE('',*,*,#763,.T.);
#539=ORIENTED_EDGE('',*,*,#761,.T.);
#540=VERTEX_POINT('',#1351);
#541=VERTEX_POINT('',#1352);
#542=VERTEX_POINT('',#1354);
#543=VERTEX_POINT('',#1356);
#544=VERTEX_POINT('',#1359);
#545=VERTEX_POINT('',#1360);
#546=VERTEX_POINT('',#1362);
#547=VERTEX_POINT('',#1364);
#548=VERTEX_POINT('',#1367);
#549=VERTEX_POINT('',#1368);
#550=VERTEX_POINT('',#1370);
#551=VERTEX_POINT('',#1372);
#552=VERTEX_POINT('',#1376);
#553=VERTEX_POINT('',#1377);
#554=VERTEX_POINT('',#1379);
#555=VERTEX_POINT('',#1381);
#556=VERTEX_POINT('',#1385);
#557=VERTEX_POINT('',#1386);
#558=VERTEX_POINT('',#1388);
#559=VERTEX_POINT('',#1390);
#560=VERTEX_POINT('',#1394);
#561=VERTEX_POINT('',#1395);
#562=VERTEX_POINT('',#1397);
#563=VERTEX_POINT('',#1399);
#564=VERTEX_POINT('',#1402);
#565=VERTEX_POINT('',#1404);
#566=VERTEX_POINT('',#1409);
#567=VERTEX_POINT('',#1411);
#568=VERTEX_POINT('',#1413);
#569=VERTEX_POINT('',#1415);
#570=VERTEX_POINT('',#1417);
#571=VERTEX_POINT('',#1419);
#572=VERTEX_POINT('',#1421);
#573=VERTEX_POINT('',#1425);
#574=VERTEX_POINT('',#1426);
#575=VERTEX_POINT('',#1428);
#576=VERTEX_POINT('',#1430);
#577=VERTEX_POINT('',#1433);
#578=VERTEX_POINT('',#1434);
#579=VERTEX_POINT('',#1436);
#580=VERTEX_POINT('',#1438);
#581=VERTEX_POINT('',#1440);
#582=VERTEX_POINT('',#1444);
#583=VERTEX_POINT('',#1449);
#584=VERTEX_POINT('',#1451);
#585=VERTEX_POINT('',#1459);
#586=VERTEX_POINT('',#1461);
#587=VERTEX_POINT('',#1463);
#588=VERTEX_POINT('',#1465);
#589=VERTEX_POINT('',#1467);
#590=VERTEX_POINT('',#1469);
#591=VERTEX_POINT('',#1489);
#592=VERTEX_POINT('',#1490);
#593=VERTEX_POINT('',#1495);
#594=VERTEX_POINT('',#1499);
#595=VERTEX_POINT('',#1506);
#596=VERTEX_POINT('',#1507);
#597=VERTEX_POINT('',#1512);
#598=VERTEX_POINT('',#1516);
#599=VERTEX_POINT('',#1523);
#600=VERTEX_POINT('',#1525);
#601=VERTEX_POINT('',#1529);
#602=VERTEX_POINT('',#1533);
#603=VERTEX_POINT('',#1537);
#604=VERTEX_POINT('',#1543);
#605=VERTEX_POINT('',#1544);
#606=VERTEX_POINT('',#1546);
#607=VERTEX_POINT('',#1548);
#608=VERTEX_POINT('',#1550);
#609=VERTEX_POINT('',#1552);
#610=VERTEX_POINT('',#1556);
#611=VERTEX_POINT('',#1558);
#612=VERTEX_POINT('',#1562);
#613=VERTEX_POINT('',#1566);
#614=VERTEX_POINT('',#1572);
#615=VERTEX_POINT('',#1573);
#616=VERTEX_POINT('',#1575);
#617=VERTEX_POINT('',#1577);
#618=VERTEX_POINT('',#1579);
#619=VERTEX_POINT('',#1581);
#620=VERTEX_POINT('',#1585);
#621=VERTEX_POINT('',#1586);
#622=VERTEX_POINT('',#1591);
#623=VERTEX_POINT('',#1595);
#624=VERTEX_POINT('',#1599);
#625=VERTEX_POINT('',#1603);
#626=VERTEX_POINT('',#1610);
#627=VERTEX_POINT('',#1611);
#628=VERTEX_POINT('',#1616);
#629=VERTEX_POINT('',#1620);
#630=VERTEX_POINT('',#1624);
#631=VERTEX_POINT('',#1628);
#632=EDGE_CURVE('',#540,#541,#770,.T.);
#633=EDGE_CURVE('',#542,#540,#771,.T.);
#634=EDGE_CURVE('',#543,#542,#772,.T.);
#635=EDGE_CURVE('',#541,#543,#773,.T.);
#636=EDGE_CURVE('',#544,#545,#774,.T.);
#637=EDGE_CURVE('',#544,#546,#775,.T.);
#638=EDGE_CURVE('',#546,#547,#776,.T.);
#639=EDGE_CURVE('',#545,#547,#777,.T.);
#640=EDGE_CURVE('',#548,#549,#778,.T.);
#641=EDGE_CURVE('',#550,#548,#779,.T.);
#642=EDGE_CURVE('',#551,#550,#780,.T.);
#643=EDGE_CURVE('',#549,#551,#781,.T.);
#644=EDGE_CURVE('',#552,#553,#782,.T.);
#645=EDGE_CURVE('',#554,#552,#783,.T.);
#646=EDGE_CURVE('',#555,#554,#784,.T.);
#647=EDGE_CURVE('',#555,#553,#785,.T.);
#648=EDGE_CURVE('',#556,#557,#786,.T.);
#649=EDGE_CURVE('',#556,#558,#787,.T.);
#650=EDGE_CURVE('',#558,#559,#788,.T.);
#651=EDGE_CURVE('',#557,#559,#789,.T.);
#652=EDGE_CURVE('',#560,#561,#790,.T.);
#653=EDGE_CURVE('',#562,#560,#791,.T.);
#654=EDGE_CURVE('',#563,#562,#792,.T.);
#655=EDGE_CURVE('',#544,#563,#793,.T.);
#656=EDGE_CURVE('',#564,#545,#794,.T.);
#657=EDGE_CURVE('',#565,#564,#795,.T.);
#658=EDGE_CURVE('',#565,#561,#796,.T.);
#659=EDGE_CURVE('',#559,#565,#797,.T.);
#660=EDGE_CURVE('',#566,#558,#798,.T.);
#661=EDGE_CURVE('',#567,#566,#799,.T.);
#662=EDGE_CURVE('',#568,#567,#800,.T.);
#663=EDGE_CURVE('',#569,#568,#801,.T.);
#664=EDGE_CURVE('',#570,#569,#802,.T.);
#665=EDGE_CURVE('',#571,#570,#803,.T.);
#666=EDGE_CURVE('',#572,#571,#804,.T.);
#667=EDGE_CURVE('',#561,#572,#805,.T.);
#668=EDGE_CURVE('',#573,#574,#806,.T.);
#669=EDGE_CURVE('',#574,#575,#807,.T.);
#670=EDGE_CURVE('',#575,#576,#808,.T.);
#671=EDGE_CURVE('',#576,#573,#809,.T.);
#672=EDGE_CURVE('',#577,#578,#810,.T.);
#673=EDGE_CURVE('',#578,#579,#811,.T.);
#674=EDGE_CURVE('',#579,#580,#812,.T.);
#675=EDGE_CURVE('',#580,#581,#813,.T.);
#676=EDGE_CURVE('',#581,#577,#814,.T.);
#677=EDGE_CURVE('',#553,#556,#35,.T.);
#678=EDGE_CURVE('',#582,#555,#815,.T.);
#679=EDGE_CURVE('',#582,#566,#816,.T.);
#680=EDGE_CURVE('',#557,#552,#36,.T.);
#681=EDGE_CURVE('',#564,#583,#817,.T.);
#682=EDGE_CURVE('',#584,#583,#818,.T.);
#683=EDGE_CURVE('',#563,#584,#819,.T.);
#684=EDGE_CURVE('',#554,#562,#820,.T.);
#685=EDGE_CURVE('',#583,#547,#821,.T.);
#686=EDGE_CURVE('',#546,#584,#822,.T.);
#687=EDGE_CURVE('',#560,#585,#823,.T.);
#688=EDGE_CURVE('',#585,#586,#824,.T.);
#689=EDGE_CURVE('',#586,#587,#825,.T.);
#690=EDGE_CURVE('',#587,#588,#826,.T.);
#691=EDGE_CURVE('',#588,#589,#827,.T.);
#692=EDGE_CURVE('',#589,#590,#828,.T.);
#693=EDGE_CURVE('',#590,#582,#829,.T.);
#694=EDGE_CURVE('',#586,#571,#830,.T.);
#695=EDGE_CURVE('',#585,#572,#831,.T.);
#696=EDGE_CURVE('',#587,#570,#832,.T.);
#697=EDGE_CURVE('',#588,#569,#833,.T.);
#698=EDGE_CURVE('',#589,#568,#834,.T.);
#699=EDGE_CURVE('',#590,#567,#835,.T.);
#700=EDGE_CURVE('',#591,#592,#836,.T.);
#701=EDGE_CURVE('',#592,#540,#837,.T.);
#702=EDGE_CURVE('',#591,#541,#838,.T.);
#703=EDGE_CURVE('',#593,#591,#839,.T.);
#704=EDGE_CURVE('',#593,#543,#840,.T.);
#705=EDGE_CURVE('',#594,#593,#841,.T.);
#706=EDGE_CURVE('',#594,#542,#842,.T.);
#707=EDGE_CURVE('',#592,#594,#843,.T.);
#708=EDGE_CURVE('',#595,#596,#844,.T.);
#709=EDGE_CURVE('',#596,#548,#845,.T.);
#710=EDGE_CURVE('',#595,#549,#846,.T.);
#711=EDGE_CURVE('',#597,#595,#847,.T.);
#712=EDGE_CURVE('',#597,#551,#848,.T.);
#713=EDGE_CURVE('',#598,#597,#849,.T.);
#714=EDGE_CURVE('',#598,#550,#850,.T.);
#715=EDGE_CURVE('',#596,#598,#851,.T.);
#716=EDGE_CURVE('',#599,#578,#852,.T.);
#717=EDGE_CURVE('',#599,#600,#853,.T.);
#718=EDGE_CURVE('',#600,#579,#854,.T.);
#719=EDGE_CURVE('',#600,#601,#855,.T.);
#720=EDGE_CURVE('',#601,#580,#856,.T.);
#721=EDGE_CURVE('',#601,#602,#857,.T.);
#722=EDGE_CURVE('',#602,#581,#858,.T.);
#723=EDGE_CURVE('',#602,#603,#859,.T.);
#724=EDGE_CURVE('',#603,#577,#860,.T.);
#725=EDGE_CURVE('',#603,#599,#861,.T.);
#726=EDGE_CURVE('',#604,#605,#862,.T.);
#727=EDGE_CURVE('',#605,#606,#863,.T.);
#728=EDGE_CURVE('',#606,#607,#864,.T.);
#729=EDGE_CURVE('',#607,#608,#865,.T.);
#730=EDGE_CURVE('',#608,#609,#866,.T.);
#731=EDGE_CURVE('',#609,#604,#867,.T.);
#732=EDGE_CURVE('',#610,#574,#868,.T.);
#733=EDGE_CURVE('',#610,#611,#869,.T.);
#734=EDGE_CURVE('',#611,#575,#870,.T.);
#735=EDGE_CURVE('',#611,#612,#871,.T.);
#736=EDGE_CURVE('',#612,#576,#872,.T.);
#737=EDGE_CURVE('',#612,#613,#873,.T.);
#738=EDGE_CURVE('',#613,#573,#874,.T.);
#739=EDGE_CURVE('',#613,#610,#875,.T.);
#740=EDGE_CURVE('',#614,#615,#876,.T.);
#741=EDGE_CURVE('',#615,#616,#877,.T.);
#742=EDGE_CURVE('',#616,#617,#878,.T.);
#743=EDGE_CURVE('',#617,#618,#879,.T.);
#744=EDGE_CURVE('',#618,#619,#880,.T.);
#745=EDGE_CURVE('',#619,#614,#881,.T.);
#746=EDGE_CURVE('',#620,#621,#882,.T.);
#747=EDGE_CURVE('',#620,#616,#883,.T.);
#748=EDGE_CURVE('',#621,#615,#884,.T.);
#749=EDGE_CURVE('',#622,#620,#885,.T.);
#750=EDGE_CURVE('',#622,#617,#886,.T.);
#751=EDGE_CURVE('',#623,#622,#887,.T.);
#752=EDGE_CURVE('',#623,#618,#888,.T.);
#753=EDGE_CURVE('',#624,#623,#889,.T.);
#754=EDGE_CURVE('',#624,#619,#890,.T.);
#755=EDGE_CURVE('',#625,#624,#891,.T.);
#756=EDGE_CURVE('',#625,#614,#892,.T.);
#757=EDGE_CURVE('',#621,#625,#893,.T.);
#758=EDGE_CURVE('',#626,#627,#894,.T.);
#759=EDGE_CURVE('',#626,#606,#895,.T.);
#760=EDGE_CURVE('',#627,#605,#896,.T.);
#761=EDGE_CURVE('',#628,#626,#897,.T.);
#762=EDGE_CURVE('',#628,#607,#898,.T.);
#763=EDGE_CURVE('',#629,#628,#899,.T.);
#764=EDGE_CURVE('',#629,#608,#900,.T.);
#765=EDGE_CURVE('',#630,#629,#901,.T.);
#766=EDGE_CURVE('',#630,#609,#902,.T.);
#767=EDGE_CURVE('',#631,#630,#903,.T.);
#768=EDGE_CURVE('',#631,#604,#904,.T.);
#769=EDGE_CURVE('',#627,#631,#905,.T.);
#770=LINE('',#1350,#906);
#771=LINE('',#1353,#907);
#772=LINE('',#1355,#908);
#773=LINE('',#1357,#909);
#774=LINE('',#1358,#910);
#775=LINE('',#1361,#911);
#776=LINE('',#1363,#912);
#777=LINE('',#1365,#913);
#778=LINE('',#1366,#914);
#779=LINE('',#1369,#915);
#780=LINE('',#1371,#916);
#781=LINE('',#1373,#917);
#782=LINE('',#1375,#918);
#783=LINE('',#1378,#919);
#784=LINE('',#1380,#920);
#785=LINE('',#1382,#921);
#786=LINE('',#1384,#922);
#787=LINE('',#1387,#923);
#788=LINE('',#1389,#924);
#789=LINE('',#1391,#925);
#790=LINE('',#1393,#926);
#791=LINE('',#1396,#927);
#792=LINE('',#1398,#928);
#793=LINE('',#1400,#929);
#794=LINE('',#1401,#930);
#795=LINE('',#1403,#931);
#796=LINE('',#1405,#932);
#797=LINE('',#1407,#933);
#798=LINE('',#1408,#934);
#799=LINE('',#1410,#935);
#800=LINE('',#1412,#936);
#801=LINE('',#1414,#937);
#802=LINE('',#1416,#938);
#803=LINE('',#1418,#939);
#804=LINE('',#1420,#940);
#805=LINE('',#1422,#941);
#806=LINE('',#1424,#942);
#807=LINE('',#1427,#943);
#808=LINE('',#1429,#944);
#809=LINE('',#1431,#945);
#810=LINE('',#1432,#946);
#811=LINE('',#1435,#947);
#812=LINE('',#1437,#948);
#813=LINE('',#1439,#949);
#814=LINE('',#1441,#950);
#815=LINE('',#1443,#951);
#816=LINE('',#1445,#952);
#817=LINE('',#1448,#953);
#818=LINE('',#1450,#954);
#819=LINE('',#1452,#955);
#820=LINE('',#1453,#956);
#821=LINE('',#1455,#957);
#822=LINE('',#1456,#958);
#823=LINE('',#1458,#959);
#824=LINE('',#1460,#960);
#825=LINE('',#1462,#961);
#826=LINE('',#1464,#962);
#827=LINE('',#1466,#963);
#828=LINE('',#1468,#964);
#829=LINE('',#1470,#965);
#830=LINE('',#1472,#966);
#831=LINE('',#1473,#967);
#832=LINE('',#1475,#968);
#833=LINE('',#1477,#969);
#834=LINE('',#1479,#970);
#835=LINE('',#1481,#971);
#836=LINE('',#1488,#972);
#837=LINE('',#1491,#973);
#838=LINE('',#1492,#974);
#839=LINE('',#1494,#975);
#840=LINE('',#1496,#976);
#841=LINE('',#1498,#977);
#842=LINE('',#1500,#978);
#843=LINE('',#1502,#979);
#844=LINE('',#1505,#980);
#845=LINE('',#1508,#981);
#846=LINE('',#1509,#982);
#847=LINE('',#1511,#983);
#848=LINE('',#1513,#984);
#849=LINE('',#1515,#985);
#850=LINE('',#1517,#986);
#851=LINE('',#1519,#987);
#852=LINE('',#1522,#988);
#853=LINE('',#1524,#989);
#854=LINE('',#1526,#990);
#855=LINE('',#1528,#991);
#856=LINE('',#1530,#992);
#857=LINE('',#1532,#993);
#858=LINE('',#1534,#994);
#859=LINE('',#1536,#995);
#860=LINE('',#1538,#996);
#861=LINE('',#1540,#997);
#862=LINE('',#1542,#998);
#863=LINE('',#1545,#999);
#864=LINE('',#1547,#1000);
#865=LINE('',#1549,#1001);
#866=LINE('',#1551,#1002);
#867=LINE('',#1553,#1003);
#868=LINE('',#1555,#1004);
#869=LINE('',#1557,#1005);
#870=LINE('',#1559,#1006);
#871=LINE('',#1561,#1007);
#872=LINE('',#1563,#1008);
#873=LINE('',#1565,#1009);
#874=LINE('',#1567,#1010);
#875=LINE('',#1569,#1011);
#876=LINE('',#1571,#1012);
#877=LINE('',#1574,#1013);
#878=LINE('',#1576,#1014);
#879=LINE('',#1578,#1015);
#880=LINE('',#1580,#1016);
#881=LINE('',#1582,#1017);
#882=LINE('',#1584,#1018);
#883=LINE('',#1587,#1019);
#884=LINE('',#1588,#1020);
#885=LINE('',#1590,#1021);
#886=LINE('',#1592,#1022);
#887=LINE('',#1594,#1023);
#888=LINE('',#1596,#1024);
#889=LINE('',#1598,#1025);
#890=LINE('',#1600,#1026);
#891=LINE('',#1602,#1027);
#892=LINE('',#1604,#1028);
#893=LINE('',#1606,#1029);
#894=LINE('',#1609,#1030);
#895=LINE('',#1612,#1031);
#896=LINE('',#1613,#1032);
#897=LINE('',#1615,#1033);
#898=LINE('',#1617,#1034);
#899=LINE('',#1619,#1035);
#900=LINE('',#1621,#1036);
#901=LINE('',#1623,#1037);
#902=LINE('',#1625,#1038);
#903=LINE('',#1627,#1039);
#904=LINE('',#1629,#1040);
#905=LINE('',#1631,#1041);
#906=VECTOR('',#1101,1.);
#907=VECTOR('',#1102,1.);
#908=VECTOR('',#1103,1.);
#909=VECTOR('',#1104,1.);
#910=VECTOR('',#1105,1.);
#911=VECTOR('',#1106,1.);
#912=VECTOR('',#1107,1.);
#913=VECTOR('',#1108,1.);
#914=VECTOR('',#1109,1.);
#915=VECTOR('',#1110,1.);
#916=VECTOR('',#1111,1.);
#917=VECTOR('',#1112,1.);
#918=VECTOR('',#1115,1.);
#919=VECTOR('',#1116,1.);
#920=VECTOR('',#1117,1.);
#921=VECTOR('',#1118,1.);
#922=VECTOR('',#1121,1.);
#923=VECTOR('',#1122,1.);
#924=VECTOR('',#1123,1.);
#925=VECTOR('',#1124,1.);
#926=VECTOR('',#1127,1.);
#927=VECTOR('',#1128,1.);
#928=VECTOR('',#1129,1.);
#929=VECTOR('',#1130,1.);
#930=VECTOR('',#1131,1.);
#931=VECTOR('',#1132,1.);
#932=VECTOR('',#1133,1.);
#933=VECTOR('',#1136,1.);
#934=VECTOR('',#1137,1.);
#935=VECTOR('',#1138,1.);
#936=VECTOR('',#1139,1.);
#937=VECTOR('',#1140,1.);
#938=VECTOR('',#1141,1.);
#939=VECTOR('',#1142,1.);
#940=VECTOR('',#1143,1.);
#941=VECTOR('',#1144,1.);
#942=VECTOR('',#1147,1.);
#943=VECTOR('',#1148,1.);
#944=VECTOR('',#1149,1.);
#945=VECTOR('',#1150,1.);
#946=VECTOR('',#1151,1.);
#947=VECTOR('',#1152,1.);
#948=VECTOR('',#1153,1.);
#949=VECTOR('',#1154,1.);
#950=VECTOR('',#1155,1.);
#951=VECTOR('',#1158,1.);
#952=VECTOR('',#1159,1.);
#953=VECTOR('',#1164,1.);
#954=VECTOR('',#1165,1.);
#955=VECTOR('',#1166,1.);
#956=VECTOR('',#1167,1.);
#957=VECTOR('',#1170,1.);
#958=VECTOR('',#1171,1.);
#959=VECTOR('',#1174,1.);
#960=VECTOR('',#1175,1.);
#961=VECTOR('',#1176,1.);
#962=VECTOR('',#1177,1.);
#963=VECTOR('',#1178,1.);
#964=VECTOR('',#1179,1.);
#965=VECTOR('',#1180,1.);
#966=VECTOR('',#1183,1.);
#967=VECTOR('',#1184,1.);
#968=VECTOR('',#1187,1.);
#969=VECTOR('',#1190,1.);
#970=VECTOR('',#1193,1.);
#971=VECTOR('',#1196,1.);
#972=VECTOR('',#1209,1.);
#973=VECTOR('',#1210,1.);
#974=VECTOR('',#1211,1.);
#975=VECTOR('',#1214,1.);
#976=VECTOR('',#1215,1.);
#977=VECTOR('',#1218,1.);
#978=VECTOR('',#1219,1.);
#979=VECTOR('',#1222,1.);
#980=VECTOR('',#1227,1.);
#981=VECTOR('',#1228,1.);
#982=VECTOR('',#1229,1.);
#983=VECTOR('',#1232,1.);
#984=VECTOR('',#1233,1.);
#985=VECTOR('',#1236,1.);
#986=VECTOR('',#1237,1.);
#987=VECTOR('',#1240,1.);
#988=VECTOR('',#1245,1.);
#989=VECTOR('',#1246,1.);
#990=VECTOR('',#1247,1.);
#991=VECTOR('',#1250,1.);
#992=VECTOR('',#1251,1.);
#993=VECTOR('',#1254,1.);
#994=VECTOR('',#1255,1.);
#995=VECTOR('',#1258,1.);
#996=VECTOR('',#1259,1.);
#997=VECTOR('',#1262,1.);
#998=VECTOR('',#1265,1.);
#999=VECTOR('',#1266,1.);
#1000=VECTOR('',#1267,1.);
#1001=VECTOR('',#1268,1.);
#1002=VECTOR('',#1269,1.);
#1003=VECTOR('',#1270,1.);
#1004=VECTOR('',#1273,1.);
#1005=VECTOR('',#1274,1.);
#1006=VECTOR('',#1275,1.);
#1007=VECTOR('',#1278,1.);
#1008=VECTOR('',#1279,1.);
#1009=VECTOR('',#1282,1.);
#1010=VECTOR('',#1283,1.);
#1011=VECTOR('',#1286,1.);
#1012=VECTOR('',#1289,1.);
#1013=VECTOR('',#1290,1.);
#1014=VECTOR('',#1291,1.);
#1015=VECTOR('',#1292,1.);
#1016=VECTOR('',#1293,1.);
#1017=VECTOR('',#1294,1.);
#1018=VECTOR('',#1297,1.);
#1019=VECTOR('',#1298,1.);
#1020=VECTOR('',#1299,1.);
#1021=VECTOR('',#1302,1.);
#1022=VECTOR('',#1303,1.);
#1023=VECTOR('',#1306,1.);
#1024=VECTOR('',#1307,1.);
#1025=VECTOR('',#1310,1.);
#1026=VECTOR('',#1311,1.);
#1027=VECTOR('',#1314,1.);
#1028=VECTOR('',#1315,1.);
#1029=VECTOR('',#1318,1.);
#1030=VECTOR('',#1323,1.);
#1031=VECTOR('',#1324,1.);
#1032=VECTOR('',#1325,1.);
#1033=VECTOR('',#1328,1.);
#1034=VECTOR('',#1329,1.);
#1035=VECTOR('',#1332,1.);
#1036=VECTOR('',#1333,1.);
#1037=VECTOR('',#1336,1.);
#1038=VECTOR('',#1337,1.);
#1039=VECTOR('',#1340,1.);
#1040=VECTOR('',#1341,1.);
#1041=VECTOR('',#1344,1.);
#1042=AXIS2_PLACEMENT_3D('',#1349,#1099,#1100);
#1043=AXIS2_PLACEMENT_3D('',#1374,#1113,#1114);
#1044=AXIS2_PLACEMENT_3D('',#1383,#1119,#1120);
#1045=AXIS2_PLACEMENT_3D('',#1392,#1125,#1126);
#1046=AXIS2_PLACEMENT_3D('',#1406,#1134,#1135);
#1047=AXIS2_PLACEMENT_3D('',#1423,#1145,#1146);
#1048=AXIS2_PLACEMENT_3D('',#1442,#1156,#1157);
#1049=AXIS2_PLACEMENT_3D('',#1446,#1160,#1161);
#1050=AXIS2_PLACEMENT_3D('',#1447,#1162,#1163);
#1051=AXIS2_PLACEMENT_3D('',#1454,#1168,#1169);
#1052=AXIS2_PLACEMENT_3D('',#1457,#1172,#1173);
#1053=AXIS2_PLACEMENT_3D('',#1471,#1181,#1182);
#1054=AXIS2_PLACEMENT_3D('',#1474,#1185,#1186);
#1055=AXIS2_PLACEMENT_3D('',#1476,#1188,#1189);
#1056=AXIS2_PLACEMENT_3D('',#1478,#1191,#1192);
#1057=AXIS2_PLACEMENT_3D('',#1480,#1194,#1195);
#1058=AXIS2_PLACEMENT_3D('',#1482,#1197,#1198);
#1059=AXIS2_PLACEMENT_3D('',#1483,#1199,#1200);
#1060=AXIS2_PLACEMENT_3D('',#1484,#1201,#1202);
#1061=AXIS2_PLACEMENT_3D('',#1485,#1203,#1204);
#1062=AXIS2_PLACEMENT_3D('',#1486,#1205,#1206);
#1063=AXIS2_PLACEMENT_3D('',#1487,#1207,#1208);
#1064=AXIS2_PLACEMENT_3D('',#1493,#1212,#1213);
#1065=AXIS2_PLACEMENT_3D('',#1497,#1216,#1217);
#1066=AXIS2_PLACEMENT_3D('',#1501,#1220,#1221);
#1067=AXIS2_PLACEMENT_3D('',#1503,#1223,#1224);
#1068=AXIS2_PLACEMENT_3D('',#1504,#1225,#1226);
#1069=AXIS2_PLACEMENT_3D('',#1510,#1230,#1231);
#1070=AXIS2_PLACEMENT_3D('',#1514,#1234,#1235);
#1071=AXIS2_PLACEMENT_3D('',#1518,#1238,#1239);
#1072=AXIS2_PLACEMENT_3D('',#1520,#1241,#1242);
#1073=AXIS2_PLACEMENT_3D('',#1521,#1243,#1244);
#1074=AXIS2_PLACEMENT_3D('',#1527,#1248,#1249);
#1075=AXIS2_PLACEMENT_3D('',#1531,#1252,#1253);
#1076=AXIS2_PLACEMENT_3D('',#1535,#1256,#1257);
#1077=AXIS2_PLACEMENT_3D('',#1539,#1260,#1261);
#1078=AXIS2_PLACEMENT_3D('',#1541,#1263,#1264);
#1079=AXIS2_PLACEMENT_3D('',#1554,#1271,#1272);
#1080=AXIS2_PLACEMENT_3D('',#1560,#1276,#1277);
#1081=AXIS2_PLACEMENT_3D('',#1564,#1280,#1281);
#1082=AXIS2_PLACEMENT_3D('',#1568,#1284,#1285);
#1083=AXIS2_PLACEMENT_3D('',#1570,#1287,#1288);
#1084=AXIS2_PLACEMENT_3D('',#1583,#1295,#1296);
#1085=AXIS2_PLACEMENT_3D('',#1589,#1300,#1301);
#1086=AXIS2_PLACEMENT_3D('',#1593,#1304,#1305);
#1087=AXIS2_PLACEMENT_3D('',#1597,#1308,#1309);
#1088=AXIS2_PLACEMENT_3D('',#1601,#1312,#1313);
#1089=AXIS2_PLACEMENT_3D('',#1605,#1316,#1317);
#1090=AXIS2_PLACEMENT_3D('',#1607,#1319,#1320);
#1091=AXIS2_PLACEMENT_3D('',#1608,#1321,#1322);
#1092=AXIS2_PLACEMENT_3D('',#1614,#1326,#1327);
#1093=AXIS2_PLACEMENT_3D('',#1618,#1330,#1331);
#1094=AXIS2_PLACEMENT_3D('',#1622,#1334,#1335);
#1095=AXIS2_PLACEMENT_3D('',#1626,#1338,#1339);
#1096=AXIS2_PLACEMENT_3D('',#1630,#1342,#1343);
#1097=AXIS2_PLACEMENT_3D('',#1632,#1345,#1346);
#1098=AXIS2_PLACEMENT_3D('',#1633,#1347,#1348);
#1099=DIRECTION('',(0.,0.,1.));
#1100=DIRECTION('',(1.,0.,0.));
#1101=DIRECTION('',(0.,-1.,0.));
#1102=DIRECTION('',(-1.,-5.44278199038907E-17,0.));
#1103=DIRECTION('',(3.57046498569523E-15,1.,0.));
#1104=DIRECTION('',(1.,-3.48338047384902E-16,0.));
#1105=DIRECTION('',(-1.,0.,-2.25288763113871E-16));
#1106=DIRECTION('',(0.,1.,0.));
#1107=DIRECTION('',(-1.,0.,0.));
#1108=DIRECTION('',(0.,1.,0.));
#1109=DIRECTION('',(0.,-1.,0.));
#1110=DIRECTION('',(-1.,0.,0.));
#1111=DIRECTION('',(0.,1.,0.));
#1112=DIRECTION('',(1.,4.57193687192682E-16,0.));
#1113=DIRECTION('',(0.,0.,-1.));
#1114=DIRECTION('',(-1.,0.,0.));
#1115=DIRECTION('',(0.,0.,-1.));
#1116=DIRECTION('',(-1.,0.,0.));
#1117=DIRECTION('',(0.,3.92471374655386E-16,1.));
#1118=DIRECTION('',(-1.,0.,0.));
#1119=DIRECTION('',(0.,-1.,3.92471374655386E-16));
#1120=DIRECTION('',(0.,-3.92481186439753E-16,-1.));
#1121=DIRECTION('',(0.,0.,1.));
#1122=DIRECTION('',(-1.,0.,0.));
#1123=DIRECTION('',(0.,3.92471374655386E-16,1.));
#1124=DIRECTION('',(-1.,0.,0.));
#1125=DIRECTION('',(0.,-1.,3.92471374655386E-16));
#1126=DIRECTION('',(0.,-3.92481186439753E-16,-1.));
#1127=DIRECTION('',(-1.,0.,0.));
#1128=DIRECTION('',(0.,3.92471374655386E-16,-1.));
#1129=DIRECTION('',(-1.,0.,0.));
#1130=DIRECTION('',(3.40141858034667E-15,0.,-1.));
#1131=DIRECTION('',(0.,0.,1.));
#1132=DIRECTION('',(-1.,0.,0.));
#1133=DIRECTION('',(0.,3.92471374655386E-16,-1.));
#1134=DIRECTION('',(0.,1.,3.92471374655386E-16));
#1135=DIRECTION('',(0.,-3.92481186439753E-16,1.));
#1136=DIRECTION('',(0.,-1.,0.));
#1137=DIRECTION('',(0.,1.,1.40578828057463E-32));
#1138=DIRECTION('',(0.,0.,1.));
#1139=DIRECTION('',(0.,0.707106781186547,0.707106781186547));
#1140=DIRECTION('',(0.,1.,0.));
#1141=DIRECTION('',(0.,1.81836842345577E-16,-1.));
#1142=DIRECTION('',(0.,0.707106781186547,-0.707106781186547));
#1143=DIRECTION('',(0.,0.,-1.));
#1144=DIRECTION('',(0.,-1.,0.));
#1145=DIRECTION('',(1.,0.,0.));
#1146=DIRECTION('',(0.,0.,-1.));
#1147=DIRECTION('',(-1.,-1.35525271560688E-16,0.));
#1148=DIRECTION('',(-9.03501810404587E-17,-1.,0.));
#1149=DIRECTION('',(1.,0.,0.));
#1150=DIRECTION('',(9.03501810404587E-17,1.,0.));
#1151=DIRECTION('',(-1.,0.,0.));
#1152=DIRECTION('',(0.,-1.,0.));
#1153=DIRECTION('',(1.,4.51750905202293E-17,0.));
#1154=DIRECTION('',(4.95635278850516E-16,1.,0.));
#1155=DIRECTION('',(-0.707106781186548,0.707106781186547,0.));
#1156=DIRECTION('',(0.,0.,1.));
#1157=DIRECTION('',(1.,0.,0.));
#1158=DIRECTION('',(0.,1.,1.40578828057463E-32));
#1159=DIRECTION('',(-1.,0.,0.));
#1160=DIRECTION('',(0.,-1.40578828057462E-32,1.));
#1161=DIRECTION('',(0.,-1.,-1.40592885940268E-32));
#1162=DIRECTION('',(0.,0.,-1.));
#1163=DIRECTION('',(1.,0.,0.));
#1164=DIRECTION('',(0.,1.,0.));
#1165=DIRECTION('',(-1.,0.,0.));
#1166=DIRECTION('',(0.,1.,0.));
#1167=DIRECTION('',(0.,-1.,0.));
#1168=DIRECTION('',(0.,0.,1.));
#1169=DIRECTION('',(1.,0.,0.));
#1170=DIRECTION('',(0.,0.,1.));
#1171=DIRECTION('',(3.40141858034667E-15,0.,-1.));
#1172=DIRECTION('',(0.,-1.,0.));
#1173=DIRECTION('',(0.,0.,-1.));
#1174=DIRECTION('',(0.,-1.,0.));
#1175=DIRECTION('',(0.,0.,-1.));
#1176=DIRECTION('',(0.,0.707106781186547,-0.707106781186547));
#1177=DIRECTION('',(0.,1.81836842345577E-16,-1.));
#1178=DIRECTION('',(0.,1.,0.));
#1179=DIRECTION('',(0.,0.707106781186547,0.707106781186547));
#1180=DIRECTION('',(0.,0.,1.));
#1181=DIRECTION('',(1.,0.,0.));
#1182=DIRECTION('',(0.,0.,-1.));
#1183=DIRECTION('',(-1.,0.,0.));
#1184=DIRECTION('',(-1.,0.,0.));
#1185=DIRECTION('',(0.,1.,0.));
#1186=DIRECTION('',(0.,0.,1.));
#1187=DIRECTION('',(-1.,0.,0.));
#1188=DIRECTION('',(0.,0.707106781186548,0.707106781186548));
#1189=DIRECTION('',(0.,-0.707106781186548,0.707106781186548));
#1190=DIRECTION('',(-1.,0.,0.));
#1191=DIRECTION('',(0.,1.,1.81836842345577E-16));
#1192=DIRECTION('',(0.,-1.82145964977565E-16,1.));
#1193=DIRECTION('',(-1.,0.,0.));
#1194=DIRECTION('',(0.,0.,1.));
#1195=DIRECTION('',(1.,0.,0.));
#1196=DIRECTION('',(-1.,0.,0.));
#1197=DIRECTION('',(0.,-0.707106781186548,0.707106781186548));
#1198=DIRECTION('',(0.,-0.707106781186548,-0.707106781186548));
#1199=DIRECTION('',(0.,-1.,0.));
#1200=DIRECTION('',(0.,0.,-1.));
#1201=DIRECTION('',(0.,0.,-1.));
#1202=DIRECTION('',(-1.,0.,0.));
#1203=DIRECTION('',(0.,0.,-1.));
#1204=DIRECTION('',(-1.,0.,0.));
#1205=DIRECTION('',(1.,0.,3.40141858034667E-15));
#1206=DIRECTION('',(3.40135905552152E-15,0.,-1.));
#1207=DIRECTION('',(-1.,0.,0.));
#1208=DIRECTION('',(0.,0.,1.));
#1209=DIRECTION('',(0.,1.,0.));
#1210=DIRECTION('',(0.,0.,1.));
#1211=DIRECTION('',(0.,0.,1.));
#1212=DIRECTION('',(1.,0.,0.));
#1213=DIRECTION('',(0.,0.,-1.));
#1214=DIRECTION('',(-1.,3.48338047384902E-16,0.));
#1215=DIRECTION('',(0.,0.,1.));
#1216=DIRECTION('',(3.48338047384902E-16,1.,0.));
#1217=DIRECTION('',(-1.,3.48245737802344E-16,0.));
#1218=DIRECTION('',(-3.57046498569523E-15,-1.,0.));
#1219=DIRECTION('',(0.,0.,1.));
#1220=DIRECTION('',(-1.,3.57046498569523E-15,0.));
#1221=DIRECTION('',(-3.57049459442926E-15,-1.,0.));
#1222=DIRECTION('',(1.,5.44278199038907E-17,0.));
#1223=DIRECTION('',(5.44278199038907E-17,-1.,0.));
#1224=DIRECTION('',(1.,5.44269490587723E-17,0.));
#1225=DIRECTION('',(0.,0.,1.));
#1226=DIRECTION('',(1.,0.,0.));
#1227=DIRECTION('',(0.,1.,0.));
#1228=DIRECTION('',(0.,0.,1.));
#1229=DIRECTION('',(0.,0.,1.));
#1230=DIRECTION('',(1.,0.,0.));
#1231=DIRECTION('',(0.,0.,-1.));
#1232=DIRECTION('',(-1.,-4.57193687192682E-16,0.));
#1233=DIRECTION('',(0.,0.,1.));
#1234=DIRECTION('',(-4.57193687192682E-16,1.,0.));
#1235=DIRECTION('',(-1.,-4.57208056137137E-16,0.));
#1236=DIRECTION('',(0.,-1.,0.));
#1237=DIRECTION('',(0.,0.,1.));
#1238=DIRECTION('',(-1.,0.,0.));
#1239=DIRECTION('',(0.,0.,1.));
#1240=DIRECTION('',(1.,0.,0.));
#1241=DIRECTION('',(0.,-1.,0.));
#1242=DIRECTION('',(0.,0.,-1.));
#1243=DIRECTION('',(0.,0.,1.));
#1244=DIRECTION('',(1.,0.,0.));
#1245=DIRECTION('',(0.,0.,1.));
#1246=DIRECTION('',(0.,-1.,0.));
#1247=DIRECTION('',(0.,0.,1.));
#1248=DIRECTION('',(-1.,0.,0.));
#1249=DIRECTION('',(0.,0.,1.));
#1250=DIRECTION('',(1.,4.51750905202293E-17,0.));
#1251=DIRECTION('',(0.,0.,1.));
#1252=DIRECTION('',(4.51750905202293E-17,-1.,0.));
#1253=DIRECTION('',(1.,4.51570204840213E-17,0.));
#1254=DIRECTION('',(4.95635278850516E-16,1.,0.));
#1255=DIRECTION('',(0.,0.,1.));
#1256=DIRECTION('',(1.,-4.95635278850516E-16,0.));
#1257=DIRECTION('',(4.95697233260373E-16,1.,0.));
#1258=DIRECTION('',(-0.707106781186548,0.707106781186547,0.));
#1259=DIRECTION('',(0.,0.,1.));
#1260=DIRECTION('',(0.707106781186547,0.707106781186548,0.));
#1261=DIRECTION('',(-0.707106781186548,0.707106781186547,0.));
#1262=DIRECTION('',(-1.,0.,0.));
#1263=DIRECTION('',(0.,1.,0.));
#1264=DIRECTION('',(0.,0.,1.));
#1265=DIRECTION('',(-0.707106781186547,-0.707106781186548,0.));
#1266=DIRECTION('',(0.,-1.,0.));
#1267=DIRECTION('',(1.,0.,0.));
#1268=DIRECTION('',(0.,1.,0.));
#1269=DIRECTION('',(-0.707106781186547,0.707106781186548,0.));
#1270=DIRECTION('',(-1.,0.,0.));
#1271=DIRECTION('',(0.,0.,1.));
#1272=DIRECTION('',(1.,0.,0.));
#1273=DIRECTION('',(0.,0.,1.));
#1274=DIRECTION('',(-9.03501810404587E-17,-1.,0.));
#1275=DIRECTION('',(0.,0.,1.));
#1276=DIRECTION('',(-1.,9.03501810404587E-17,0.));
#1277=DIRECTION('',(-9.04224611852911E-17,-1.,0.));
#1278=DIRECTION('',(1.,0.,0.));
#1279=DIRECTION('',(0.,0.,1.));
#1280=DIRECTION('',(0.,-1.,0.));
#1281=DIRECTION('',(0.,0.,-1.));
#1282=DIRECTION('',(9.03501810404587E-17,1.,0.));
#1283=DIRECTION('',(0.,0.,1.));
#1284=DIRECTION('',(1.,-9.03501810404586E-17,0.));
#1285=DIRECTION('',(9.04224611852911E-17,1.,0.));
#1286=DIRECTION('',(-1.,-1.35525271560688E-16,0.));
#1287=DIRECTION('',(-1.35525271560688E-16,1.,0.));
#1288=DIRECTION('',(-1.,-1.35525271560688E-16,0.));
#1289=DIRECTION('',(-0.707106781186547,-0.707106781186548,0.));
#1290=DIRECTION('',(0.,-1.,0.));
#1291=DIRECTION('',(1.,0.,0.));
#1292=DIRECTION('',(0.,1.,0.));
#1293=DIRECTION('',(-0.707106781186547,0.707106781186548,0.));
#1294=DIRECTION('',(-1.,-1.11773419843867E-16,0.));
#1295=DIRECTION('',(0.,0.,1.));
#1296=DIRECTION('',(1.,0.,0.));
#1297=DIRECTION('',(0.,1.,0.));
#1298=DIRECTION('',(0.,0.,-1.));
#1299=DIRECTION('',(0.,0.,-1.));
#1300=DIRECTION('',(-1.,0.,0.));
#1301=DIRECTION('',(0.,0.,1.));
#1302=DIRECTION('',(-1.,0.,0.));
#1303=DIRECTION('',(0.,0.,-1.));
#1304=DIRECTION('',(0.,-1.,0.));
#1305=DIRECTION('',(0.,0.,-1.));
#1306=DIRECTION('',(0.,-1.,0.));
#1307=DIRECTION('',(0.,0.,-1.));
#1308=DIRECTION('',(1.,0.,0.));
#1309=DIRECTION('',(0.,0.,-1.));
#1310=DIRECTION('',(0.707106781186547,-0.707106781186548,0.));
#1311=DIRECTION('',(0.,0.,-1.));
#1312=DIRECTION('',(0.707106781186548,0.707106781186547,0.));
#1313=DIRECTION('',(-0.707106781186547,0.707106781186548,0.));
#1314=DIRECTION('',(1.,1.11773419843867E-16,0.));
#1315=DIRECTION('',(0.,0.,-1.));
#1316=DIRECTION('',(-1.11773419843867E-16,1.,0.));
#1317=DIRECTION('',(-1.,-1.11781243983256E-16,0.));
#1318=DIRECTION('',(0.707106781186547,0.707106781186548,0.));
#1319=DIRECTION('',(-0.707106781186548,0.707106781186547,0.));
#1320=DIRECTION('',(-0.707106781186547,-0.707106781186548,0.));
#1321=DIRECTION('',(0.,0.,1.));
#1322=DIRECTION('',(1.,0.,0.));
#1323=DIRECTION('',(0.,1.,0.));
#1324=DIRECTION('',(0.,0.,-1.));
#1325=DIRECTION('',(0.,0.,-1.));
#1326=DIRECTION('',(-1.,0.,0.));
#1327=DIRECTION('',(0.,0.,1.));
#1328=DIRECTION('',(-1.,0.,0.));
#1329=DIRECTION('',(0.,0.,-1.));
#1330=DIRECTION('',(0.,-1.,0.));
#1331=DIRECTION('',(0.,0.,-1.));
#1332=DIRECTION('',(0.,-1.,0.));
#1333=DIRECTION('',(0.,0.,-1.));
#1334=DIRECTION('',(1.,0.,0.));
#1335=DIRECTION('',(0.,0.,-1.));
#1336=DIRECTION('',(0.707106781186547,-0.707106781186548,0.));
#1337=DIRECTION('',(0.,0.,-1.));
#1338=DIRECTION('',(0.707106781186548,0.707106781186547,0.));
#1339=DIRECTION('',(-0.707106781186547,0.707106781186548,0.));
#1340=DIRECTION('',(1.,0.,0.));
#1341=DIRECTION('',(0.,0.,-1.));
#1342=DIRECTION('',(0.,1.,0.));
#1343=DIRECTION('',(0.,0.,1.));
#1344=DIRECTION('',(0.707106781186547,0.707106781186548,0.));
#1345=DIRECTION('',(-0.707106781186548,0.707106781186547,0.));
#1346=DIRECTION('',(-0.707106781186547,-0.707106781186548,0.));
#1347=DIRECTION('',(0.,0.,1.));
#1348=DIRECTION('',(1.,0.,0.));
#1349=CARTESIAN_POINT('',(0.,0.,0.));
#1350=CARTESIAN_POINT('',(-1.245,-0.135000000000005,7.65));
#1351=CARTESIAN_POINT('',(-1.245,-0.135000000000005,7.65));
#1352=CARTESIAN_POINT('',(-1.245,-2.625,7.65));
#1353=CARTESIAN_POINT('',(1.245,-0.135000000000005,7.65));
#1354=CARTESIAN_POINT('',(1.245,-0.135000000000005,7.65));
#1355=CARTESIAN_POINT('',(1.24499999999999,-2.62500000000001,7.65));
#1356=CARTESIAN_POINT('',(1.24499999999999,-2.62500000000001,7.65));
#1357=CARTESIAN_POINT('',(-1.245,-2.62500000000001,7.65));
#1358=CARTESIAN_POINT('',(1.925,-3.425,7.65));
#1359=CARTESIAN_POINT('',(2.64,-3.425,7.65));
#1360=CARTESIAN_POINT('',(-2.64,-3.425,7.65));
#1361=CARTESIAN_POINT('',(2.64,-3.425,7.65));
#1362=CARTESIAN_POINT('',(2.64,4.14,7.65));
#1363=CARTESIAN_POINT('',(1.925,4.14,7.65));
#1364=CARTESIAN_POINT('',(-2.64,4.14,7.65));
#1365=CARTESIAN_POINT('',(-2.64,-3.425,7.65));
#1366=CARTESIAN_POINT('',(-1.245,2.86499999999999,7.65));
#1367=CARTESIAN_POINT('',(-1.245,2.86499999999999,7.65));
#1368=CARTESIAN_POINT('',(-1.245,0.374999999999993,7.65));
#1369=CARTESIAN_POINT('',(1.245,2.86499999999999,7.65));
#1370=CARTESIAN_POINT('',(1.245,2.86499999999999,7.65));
#1371=CARTESIAN_POINT('',(1.245,0.374999999999994,7.65));
#1372=CARTESIAN_POINT('',(1.245,0.374999999999995,7.65));
#1373=CARTESIAN_POINT('',(-1.245,0.374999999999993,7.65));
#1374=CARTESIAN_POINT('',(1.925,4.14,7.65));
#1375=CARTESIAN_POINT('',(0.265000000000001,3.425,7.65));
#1376=CARTESIAN_POINT('',(0.265000000000001,3.425,6.63));
#1377=CARTESIAN_POINT('',(0.265000000000001,3.425,-8.67361737988404E-16));
#1378=CARTESIAN_POINT('',(1.925,3.425,6.63));
#1379=CARTESIAN_POINT('',(1.925,3.425,6.63));
#1380=CARTESIAN_POINT('',(1.925,3.425,0.));
#1381=CARTESIAN_POINT('',(1.925,3.425,-4.44089209850063E-16));
#1382=CARTESIAN_POINT('',(1.925,3.425,-4.44089209850063E-16));
#1383=CARTESIAN_POINT('',(1.925,3.425,0.));
#1384=CARTESIAN_POINT('',(-0.335000000000001,3.425,7.65));
#1385=CARTESIAN_POINT('',(-0.335000000000001,3.425,-8.67361737988404E-16));
#1386=CARTESIAN_POINT('',(-0.335000000000001,3.425,6.63));
#1387=CARTESIAN_POINT('',(1.925,3.425,-4.44089209850063E-16));
#1388=CARTESIAN_POINT('',(-1.925,3.425,-4.44089209850063E-16));
#1389=CARTESIAN_POINT('',(-1.925,3.425,0.));
#1390=CARTESIAN_POINT('',(-1.925,3.425,6.63));
#1391=CARTESIAN_POINT('',(1.925,3.425,6.63));
#1392=CARTESIAN_POINT('',(1.925,3.425,0.));
#1393=CARTESIAN_POINT('',(1.925,-3.425,6.1));
#1394=CARTESIAN_POINT('',(1.925,-3.425,6.1));
#1395=CARTESIAN_POINT('',(-1.925,-3.425,6.1));
#1396=CARTESIAN_POINT('',(1.925,-3.425,6.63));
#1397=CARTESIAN_POINT('',(1.925,-3.425,6.63));
#1398=CARTESIAN_POINT('',(2.64000000000001,-3.425,6.63));
#1399=CARTESIAN_POINT('',(2.64,-3.425,6.63));
#1400=CARTESIAN_POINT('',(2.64,-3.425,7.65));
#1401=CARTESIAN_POINT('',(-2.64,-3.425,6.63));
#1402=CARTESIAN_POINT('',(-2.64,-3.425,6.63));
#1403=CARTESIAN_POINT('',(-1.925,-3.425,6.63));
#1404=CARTESIAN_POINT('',(-1.925,-3.425,6.63));
#1405=CARTESIAN_POINT('',(-1.925,-3.425,6.63));
#1406=CARTESIAN_POINT('',(1.925,-3.425,6.63));
#1407=CARTESIAN_POINT('',(-1.925,-3.425,6.63));
#1408=CARTESIAN_POINT('',(-1.925,-3.425,-4.44089209850063E-16));
#1409=CARTESIAN_POINT('',(-1.925,-3.985,9.54097911787244E-15));
#1410=CARTESIAN_POINT('',(-1.925,-3.985,-4.46));
#1411=CARTESIAN_POINT('',(-1.925,-3.985,-4.46));
#1412=CARTESIAN_POINT('',(-1.925,-4.985,-5.46));
#1413=CARTESIAN_POINT('',(-1.925,-4.985,-5.46));
#1414=CARTESIAN_POINT('',(-1.925,-5.685,-5.46));
#1415=CARTESIAN_POINT('',(-1.925,-5.685,-5.46));
#1416=CARTESIAN_POINT('',(-1.925,-5.685,4.08));
#1417=CARTESIAN_POINT('',(-1.925,-5.685,4.08));
#1418=CARTESIAN_POINT('',(-1.925,-6.705,5.1));
#1419=CARTESIAN_POINT('',(-1.925,-6.705,5.1));
#1420=CARTESIAN_POINT('',(-1.925,-6.705,6.1));
#1421=CARTESIAN_POINT('',(-1.925,-6.705,6.1));
#1422=CARTESIAN_POINT('',(-1.925,-3.425,6.1));
#1423=CARTESIAN_POINT('',(-1.925,0.,0.));
#1424=CARTESIAN_POINT('',(1.2,-0.274999999999999,0.));
#1425=CARTESIAN_POINT('',(1.2,-0.274999999999999,0.));
#1426=CARTESIAN_POINT('',(-1.2,-0.275,-4.44089209850063E-16));
#1427=CARTESIAN_POINT('',(-1.2,-0.274999999999999,0.));
#1428=CARTESIAN_POINT('',(-1.2,-2.675,0.));
#1429=CARTESIAN_POINT('',(-1.2,-2.675,0.));
#1430=CARTESIAN_POINT('',(1.2,-2.675,0.));
#1431=CARTESIAN_POINT('',(1.2,-2.675,0.));
#1432=CARTESIAN_POINT('',(0.55,2.725,0.));
#1433=CARTESIAN_POINT('',(0.55,2.725,0.));
#1434=CARTESIAN_POINT('',(-1.2,2.725,-4.44089209850063E-16));
#1435=CARTESIAN_POINT('',(-1.2,2.725,0.));
#1436=CARTESIAN_POINT('',(-1.2,0.324999999999999,0.));
#1437=CARTESIAN_POINT('',(-1.2,0.324999999999999,0.));
#1438=CARTESIAN_POINT('',(1.2,0.324999999999999,0.));
#1439=CARTESIAN_POINT('',(1.2,0.325,0.));
#1440=CARTESIAN_POINT('',(1.2,2.075,0.));
#1441=CARTESIAN_POINT('',(1.2,2.075,0.));
#1442=CARTESIAN_POINT('',(-0.0350000000000001,3.425,0.));
#1443=CARTESIAN_POINT('',(1.925,-3.425,-4.44089209850063E-16));
#1444=CARTESIAN_POINT('',(1.925,-3.985,9.54097911787244E-15));
#1445=CARTESIAN_POINT('',(1.925,-3.985,9.54097911787244E-15));
#1446=CARTESIAN_POINT('',(1.925,-3.425,-4.44089209850063E-16));
#1447=CARTESIAN_POINT('',(-0.0350000000000001,3.425,6.63));
#1448=CARTESIAN_POINT('',(-2.64,-3.425,6.63));
#1449=CARTESIAN_POINT('',(-2.64,4.14,6.63));
#1450=CARTESIAN_POINT('',(1.925,4.14,6.63));
#1451=CARTESIAN_POINT('',(2.64,4.14,6.63));
#1452=CARTESIAN_POINT('',(2.64,-3.425,6.63));
#1453=CARTESIAN_POINT('',(1.92499999999999,-3.425,6.63));
#1454=CARTESIAN_POINT('',(1.925,3.425,6.63));
#1455=CARTESIAN_POINT('',(-2.64,4.14,6.63));
#1456=CARTESIAN_POINT('',(2.64,4.14,7.65));
#1457=CARTESIAN_POINT('',(1.925,4.14,6.63));
#1458=CARTESIAN_POINT('',(1.925,-3.425,6.1));
#1459=CARTESIAN_POINT('',(1.925,-6.705,6.1));
#1460=CARTESIAN_POINT('',(1.925,-6.705,6.1));
#1461=CARTESIAN_POINT('',(1.925,-6.705,5.1));
#1462=CARTESIAN_POINT('',(1.925,-6.705,5.1));
#1463=CARTESIAN_POINT('',(1.925,-5.685,4.08));
#1464=CARTESIAN_POINT('',(1.925,-5.685,4.08));
#1465=CARTESIAN_POINT('',(1.925,-5.685,-5.46));
#1466=CARTESIAN_POINT('',(1.925,-5.685,-5.46));
#1467=CARTESIAN_POINT('',(1.925,-4.985,-5.46));
#1468=CARTESIAN_POINT('',(1.925,-4.985,-5.46));
#1469=CARTESIAN_POINT('',(1.925,-3.985,-4.46));
#1470=CARTESIAN_POINT('',(1.925,-3.985,-4.46));
#1471=CARTESIAN_POINT('',(1.925,0.,0.));
#1472=CARTESIAN_POINT('',(1.925,-6.705,5.1));
#1473=CARTESIAN_POINT('',(1.925,-6.705,6.1));
#1474=CARTESIAN_POINT('',(1.925,-6.705,6.1));
#1475=CARTESIAN_POINT('',(1.925,-5.685,4.08));
#1476=CARTESIAN_POINT('',(1.925,-6.705,5.1));
#1477=CARTESIAN_POINT('',(1.925,-5.685,-5.46));
#1478=CARTESIAN_POINT('',(1.925,-5.685,4.08));
#1479=CARTESIAN_POINT('',(1.925,-4.985,-5.46));
#1480=CARTESIAN_POINT('',(1.925,-5.685,-5.46));
#1481=CARTESIAN_POINT('',(1.925,-3.985,-4.46));
#1482=CARTESIAN_POINT('',(1.925,-4.985,-5.46));
#1483=CARTESIAN_POINT('',(1.925,-3.985,-4.46));
#1484=CARTESIAN_POINT('',(1.925,-3.425,6.1));
#1485=CARTESIAN_POINT('',(-0.0350000000000001,3.425,7.65));
#1486=CARTESIAN_POINT('',(2.64,-3.425,7.65));
#1487=CARTESIAN_POINT('',(-2.64,-3.425,6.63));
#1488=CARTESIAN_POINT('',(-1.245,-0.135000000000005,7.15));
#1489=CARTESIAN_POINT('',(-1.245,-2.625,7.15));
#1490=CARTESIAN_POINT('',(-1.245,-0.135000000000005,7.15));
#1491=CARTESIAN_POINT('',(-1.245,-0.135000000000005,7.65));
#1492=CARTESIAN_POINT('',(-1.245,-2.625,7.65));
#1493=CARTESIAN_POINT('',(-1.245,-0.135000000000005,7.65));
#1494=CARTESIAN_POINT('',(-1.245,-2.62500000000001,7.15));
#1495=CARTESIAN_POINT('',(1.24499999999999,-2.62500000000001,7.15));
#1496=CARTESIAN_POINT('',(1.24499999999999,-2.62500000000001,7.65));
#1497=CARTESIAN_POINT('',(-1.245,-2.62500000000001,7.65));
#1498=CARTESIAN_POINT('',(1.24499999999999,-2.62500000000001,7.15));
#1499=CARTESIAN_POINT('',(1.245,-0.135000000000005,7.15));
#1500=CARTESIAN_POINT('',(1.245,-0.135000000000005,7.65));
#1501=CARTESIAN_POINT('',(1.24499999999999,-2.62500000000001,7.65));
#1502=CARTESIAN_POINT('',(1.245,-0.135000000000005,7.15));
#1503=CARTESIAN_POINT('',(1.245,-0.135000000000005,7.65));
#1504=CARTESIAN_POINT('',(0.,0.,7.15));
#1505=CARTESIAN_POINT('',(-1.245,2.86499999999999,7.15));
#1506=CARTESIAN_POINT('',(-1.245,0.374999999999993,7.15));
#1507=CARTESIAN_POINT('',(-1.245,2.86499999999999,7.15));
#1508=CARTESIAN_POINT('',(-1.245,2.86499999999999,7.65));
#1509=CARTESIAN_POINT('',(-1.245,0.374999999999993,7.65));
#1510=CARTESIAN_POINT('',(-1.245,2.86499999999999,7.65));
#1511=CARTESIAN_POINT('',(-1.245,0.374999999999993,7.15));
#1512=CARTESIAN_POINT('',(1.245,0.374999999999995,7.15));
#1513=CARTESIAN_POINT('',(1.245,0.374999999999995,7.65));
#1514=CARTESIAN_POINT('',(-1.245,0.374999999999993,7.65));
#1515=CARTESIAN_POINT('',(1.245,0.374999999999994,7.15));
#1516=CARTESIAN_POINT('',(1.245,2.86499999999999,7.15));
#1517=CARTESIAN_POINT('',(1.245,2.86499999999999,7.65));
#1518=CARTESIAN_POINT('',(1.245,0.374999999999994,7.65));
#1519=CARTESIAN_POINT('',(1.245,2.86499999999999,7.15));
#1520=CARTESIAN_POINT('',(1.245,2.86499999999999,7.65));
#1521=CARTESIAN_POINT('',(0.,0.,7.15));
#1522=CARTESIAN_POINT('',(-1.2,2.725,-6.35));
#1523=CARTESIAN_POINT('',(-1.2,2.725,-6.35));
#1524=CARTESIAN_POINT('',(-1.2,2.725,-6.35));
#1525=CARTESIAN_POINT('',(-1.2,0.324999999999999,-6.35));
#1526=CARTESIAN_POINT('',(-1.2,0.324999999999999,-6.35));
#1527=CARTESIAN_POINT('',(-1.2,2.725,-6.35));
#1528=CARTESIAN_POINT('',(-1.2,0.324999999999999,-6.35));
#1529=CARTESIAN_POINT('',(1.2,0.324999999999999,-6.35));
#1530=CARTESIAN_POINT('',(1.2,0.324999999999999,-6.35));
#1531=CARTESIAN_POINT('',(-1.2,0.324999999999999,-6.35));
#1532=CARTESIAN_POINT('',(1.2,0.325,-6.35));
#1533=CARTESIAN_POINT('',(1.2,2.075,-6.35));
#1534=CARTESIAN_POINT('',(1.2,2.075,-6.35));
#1535=CARTESIAN_POINT('',(1.2,0.325,-6.35));
#1536=CARTESIAN_POINT('',(1.2,2.075,-6.35));
#1537=CARTESIAN_POINT('',(0.55,2.725,-6.35));
#1538=CARTESIAN_POINT('',(0.55,2.725,-6.35));
#1539=CARTESIAN_POINT('',(1.2,2.075,-6.35));
#1540=CARTESIAN_POINT('',(0.55,2.725,-6.35));
#1541=CARTESIAN_POINT('',(0.55,2.725,-6.35));
#1542=CARTESIAN_POINT('',(-0.484999999999999,2.275,-6.35));
#1543=CARTESIAN_POINT('',(-0.484999999999999,2.275,-6.35));
#1544=CARTESIAN_POINT('',(-0.734999999999999,2.025,-6.35));
#1545=CARTESIAN_POINT('',(-0.734999999999999,2.025,-6.35));
#1546=CARTESIAN_POINT('',(-0.734999999999999,0.775000000000001,-6.35));
#1547=CARTESIAN_POINT('',(-0.734999999999999,0.775000000000001,-6.35));
#1548=CARTESIAN_POINT('',(0.734999999999999,0.775000000000001,-6.35));
#1549=CARTESIAN_POINT('',(0.734999999999999,0.775000000000001,-6.35));
#1550=CARTESIAN_POINT('',(0.734999999999999,2.025,-6.35));
#1551=CARTESIAN_POINT('',(0.734999999999999,2.025,-6.35));
#1552=CARTESIAN_POINT('',(0.484999999999999,2.275,-6.35));
#1553=CARTESIAN_POINT('',(0.484999999999999,2.275,-6.35));
#1554=CARTESIAN_POINT('',(0.,0.,-6.35));
#1555=CARTESIAN_POINT('',(-1.2,-0.274999999999999,-6.35));
#1556=CARTESIAN_POINT('',(-1.2,-0.274999999999999,-6.35));
#1557=CARTESIAN_POINT('',(-1.2,-0.274999999999999,-6.35));
#1558=CARTESIAN_POINT('',(-1.2,-2.675,-6.35));
#1559=CARTESIAN_POINT('',(-1.2,-2.675,-6.35));
#1560=CARTESIAN_POINT('',(-1.2,-0.274999999999999,-6.35));
#1561=CARTESIAN_POINT('',(-1.2,-2.675,-6.35));
#1562=CARTESIAN_POINT('',(1.2,-2.675,-6.35));
#1563=CARTESIAN_POINT('',(1.2,-2.675,-6.35));
#1564=CARTESIAN_POINT('',(-1.2,-2.675,-6.35));
#1565=CARTESIAN_POINT('',(1.2,-2.675,-6.35));
#1566=CARTESIAN_POINT('',(1.2,-0.274999999999999,-6.35));
#1567=CARTESIAN_POINT('',(1.2,-0.274999999999999,-6.35));
#1568=CARTESIAN_POINT('',(1.2,-2.675,-6.35));
#1569=CARTESIAN_POINT('',(1.2,-0.274999999999999,-6.35));
#1570=CARTESIAN_POINT('',(1.2,-0.274999999999999,-6.35));
#1571=CARTESIAN_POINT('',(-0.484999999999999,-0.725,-6.35));
#1572=CARTESIAN_POINT('',(-0.484999999999999,-0.725,-6.35));
#1573=CARTESIAN_POINT('',(-0.735,-0.975,-6.35));
#1574=CARTESIAN_POINT('',(-0.734999999999999,-0.975,-6.35));
#1575=CARTESIAN_POINT('',(-0.734999999999999,-2.225,-6.35));
#1576=CARTESIAN_POINT('',(-0.734999999999999,-2.225,-6.35));
#1577=CARTESIAN_POINT('',(0.734999999999999,-2.225,-6.35));
#1578=CARTESIAN_POINT('',(0.734999999999999,-2.225,-6.35));
#1579=CARTESIAN_POINT('',(0.734999999999999,-0.975,-6.35));
#1580=CARTESIAN_POINT('',(0.734999999999999,-0.975,-6.35));
#1581=CARTESIAN_POINT('',(0.484999999999999,-0.725,-6.35));
#1582=CARTESIAN_POINT('',(0.484999999999999,-0.725,-6.35));
#1583=CARTESIAN_POINT('',(0.,0.,-6.35));
#1584=CARTESIAN_POINT('',(-0.734999999999999,-0.975,-5.85));
#1585=CARTESIAN_POINT('',(-0.734999999999999,-2.225,-5.85));
#1586=CARTESIAN_POINT('',(-0.734999999999999,-0.975,-5.85));
#1587=CARTESIAN_POINT('',(-0.734999999999999,-2.225,-6.35));
#1588=CARTESIAN_POINT('',(-0.734999999999999,-0.975,-6.35));
#1589=CARTESIAN_POINT('',(-0.734999999999999,-0.975,-6.35));
#1590=CARTESIAN_POINT('',(-0.734999999999999,-2.225,-5.85));
#1591=CARTESIAN_POINT('',(0.734999999999999,-2.225,-5.85));
#1592=CARTESIAN_POINT('',(0.734999999999999,-2.225,-6.35));
#1593=CARTESIAN_POINT('',(-0.734999999999999,-2.225,-6.35));
#1594=CARTESIAN_POINT('',(0.734999999999999,-2.225,-5.85));
#1595=CARTESIAN_POINT('',(0.734999999999999,-0.975,-5.85));
#1596=CARTESIAN_POINT('',(0.734999999999999,-0.975,-6.35));
#1597=CARTESIAN_POINT('',(0.734999999999999,-2.225,-6.35));
#1598=CARTESIAN_POINT('',(0.734999999999999,-0.975,-5.85));
#1599=CARTESIAN_POINT('',(0.484999999999999,-0.725,-5.85));
#1600=CARTESIAN_POINT('',(0.484999999999999,-0.725,-6.35));
#1601=CARTESIAN_POINT('',(0.734999999999999,-0.975,-6.35));
#1602=CARTESIAN_POINT('',(0.484999999999999,-0.725,-5.85));
#1603=CARTESIAN_POINT('',(-0.484999999999999,-0.725,-5.85));
#1604=CARTESIAN_POINT('',(-0.484999999999999,-0.725,-6.35));
#1605=CARTESIAN_POINT('',(0.484999999999999,-0.725,-6.35));
#1606=CARTESIAN_POINT('',(-0.484999999999999,-0.725,-5.85));
#1607=CARTESIAN_POINT('',(-0.484999999999999,-0.725,-6.35));
#1608=CARTESIAN_POINT('',(0.,0.,-5.85));
#1609=CARTESIAN_POINT('',(-0.734999999999999,2.025,-5.85));
#1610=CARTESIAN_POINT('',(-0.734999999999999,0.775000000000001,-5.85));
#1611=CARTESIAN_POINT('',(-0.734999999999999,2.025,-5.85));
#1612=CARTESIAN_POINT('',(-0.734999999999999,0.775000000000001,-6.35));
#1613=CARTESIAN_POINT('',(-0.734999999999999,2.025,-6.35));
#1614=CARTESIAN_POINT('',(-0.734999999999999,2.025,-6.35));
#1615=CARTESIAN_POINT('',(-0.734999999999999,0.775000000000001,-5.85));
#1616=CARTESIAN_POINT('',(0.734999999999999,0.775000000000001,-5.85));
#1617=CARTESIAN_POINT('',(0.734999999999999,0.775000000000001,-6.35));
#1618=CARTESIAN_POINT('',(-0.734999999999999,0.775000000000001,-6.35));
#1619=CARTESIAN_POINT('',(0.734999999999999,0.775000000000001,-5.85));
#1620=CARTESIAN_POINT('',(0.734999999999999,2.025,-5.85));
#1621=CARTESIAN_POINT('',(0.734999999999999,2.025,-6.35));
#1622=CARTESIAN_POINT('',(0.734999999999999,0.775000000000001,-6.35));
#1623=CARTESIAN_POINT('',(0.734999999999999,2.025,-5.85));
#1624=CARTESIAN_POINT('',(0.484999999999999,2.275,-5.85));
#1625=CARTESIAN_POINT('',(0.484999999999999,2.275,-6.35));
#1626=CARTESIAN_POINT('',(0.734999999999999,2.025,-6.35));
#1627=CARTESIAN_POINT('',(0.484999999999999,2.275,-5.85));
#1628=CARTESIAN_POINT('',(-0.484999999999999,2.275,-5.85));
#1629=CARTESIAN_POINT('',(-0.484999999999999,2.275,-6.35));
#1630=CARTESIAN_POINT('',(0.484999999999999,2.275,-6.35));
#1631=CARTESIAN_POINT('',(-0.484999999999999,2.275,-5.85));
#1632=CARTESIAN_POINT('',(-0.484999999999999,2.275,-6.35));
#1633=CARTESIAN_POINT('',(0.,0.,-5.85));
#1634=MECHANICAL_DESIGN_GEOMETRIC_PRESENTATION_REPRESENTATION('',(#24),
#1635);
#1635=(
GEOMETRIC_REPRESENTATION_CONTEXT(3)
GLOBAL_UNCERTAINTY_ASSIGNED_CONTEXT((#1636))
GLOBAL_UNIT_ASSIGNED_CONTEXT((#1642,#1638,#1637))
REPRESENTATION_CONTEXT('430250208wbm000_01_214',
'TOP_LEVEL_ASSEMBLY_PART')
);
#1636=UNCERTAINTY_MEASURE_WITH_UNIT(LENGTH_MEASURE(2.E-5),#1642,
'DISTANCE_ACCURACY_VALUE','Maximum Tolerance applied to model');
#1637=(
NAMED_UNIT(*)
SI_UNIT($,.STERADIAN.)
SOLID_ANGLE_UNIT()
);
#1638=(
CONVERSION_BASED_UNIT('DEGREE',#1640)
NAMED_UNIT(#1639)
PLANE_ANGLE_UNIT()
);
#1639=DIMENSIONAL_EXPONENTS(0.,0.,0.,0.,0.,0.,0.);
#1640=PLANE_ANGLE_MEASURE_WITH_UNIT(PLANE_ANGLE_MEASURE(0.0174532925),#1641);
#1641=(
NAMED_UNIT(*)
PLANE_ANGLE_UNIT()
SI_UNIT($,.RADIAN.)
);
#1642=(
LENGTH_UNIT()
NAMED_UNIT(*)
SI_UNIT(.MILLI.,.METRE.)
);
ENDSEC;
END-ISO-10303-21;
